<svg width="1900" height="7" viewBox="0 0 1900 7" fill="none" xmlns="http://www.w3.org/2000/svg">
<g clip-path="url(#clip0_399_7711)">
<line x1="0.5" x2="0.5" y2="20" stroke="#909399"/>
<line x1="10.5" x2="10.5" y2="20" stroke="#909399"/>
<line x1="20.5" x2="20.5" y2="20" stroke="#909399"/>
<line x1="30.5" x2="30.5" y2="20" stroke="#909399"/>
<line x1="40.5" x2="40.5" y2="20" stroke="#909399"/>
<line x1="50.5" x2="50.5" y2="20" stroke="#909399"/>
<line x1="60.5" x2="60.5" y2="20" stroke="#909399"/>
<line x1="70.5" x2="70.5" y2="20" stroke="#909399"/>
<line x1="80.5" x2="80.5" y2="20" stroke="#909399"/>
<line x1="90.5" x2="90.5" y2="20" stroke="#909399"/>
<line x1="100.5" x2="100.5" y2="20" stroke="#909399"/>
<line x1="110.5" x2="110.5" y2="20" stroke="#909399"/>
<line x1="120.5" x2="120.5" y2="20" stroke="#909399"/>
<line x1="130.5" x2="130.5" y2="20" stroke="#909399"/>
<line x1="140.5" x2="140.5" y2="20" stroke="#909399"/>
<line x1="150.5" x2="150.5" y2="20" stroke="#909399"/>
<line x1="160.5" x2="160.5" y2="20" stroke="#909399"/>
<line x1="170.5" x2="170.5" y2="20" stroke="#909399"/>
<line x1="180.5" x2="180.5" y2="20" stroke="#909399"/>
<line x1="190.5" x2="190.5" y2="20" stroke="#909399"/>
<line x1="200.5" x2="200.5" y2="20" stroke="#909399"/>
<line x1="210.5" x2="210.5" y2="20" stroke="#909399"/>
<line x1="220.5" x2="220.5" y2="20" stroke="#909399"/>
<line x1="230.5" x2="230.5" y2="20" stroke="#909399"/>
<line x1="240.5" x2="240.5" y2="20" stroke="#909399"/>
<line x1="250.5" x2="250.5" y2="20" stroke="#909399"/>
<line x1="260.5" x2="260.5" y2="20" stroke="#909399"/>
<line x1="270.5" x2="270.5" y2="20" stroke="#909399"/>
<line x1="280.5" x2="280.5" y2="20" stroke="#909399"/>
<line x1="290.5" x2="290.5" y2="20" stroke="#909399"/>
<line x1="300.5" x2="300.5" y2="20" stroke="#909399"/>
<line x1="310.5" x2="310.5" y2="20" stroke="#909399"/>
<line x1="320.5" x2="320.5" y2="20" stroke="#909399"/>
<line x1="330.5" x2="330.5" y2="20" stroke="#909399"/>
<line x1="340.5" x2="340.5" y2="20" stroke="#909399"/>
<line x1="350.5" x2="350.5" y2="20" stroke="#909399"/>
<line x1="360.5" x2="360.5" y2="20" stroke="#909399"/>
<line x1="370.5" x2="370.5" y2="20" stroke="#909399"/>
<line x1="380.5" x2="380.5" y2="20" stroke="#909399"/>
<line x1="390.5" x2="390.5" y2="20" stroke="#909399"/>
<line x1="400.5" x2="400.5" y2="20" stroke="#909399"/>
<line x1="410.5" x2="410.5" y2="20" stroke="#909399"/>
<line x1="420.5" x2="420.5" y2="20" stroke="#909399"/>
<line x1="430.5" x2="430.5" y2="20" stroke="#909399"/>
<line x1="440.5" x2="440.5" y2="20" stroke="#909399"/>
<line x1="450.5" x2="450.5" y2="20" stroke="#909399"/>
<line x1="460.5" x2="460.5" y2="20" stroke="#909399"/>
<line x1="470.5" x2="470.5" y2="20" stroke="#909399"/>
<line x1="480.5" x2="480.5" y2="20" stroke="#909399"/>
<line x1="490.5" x2="490.5" y2="20" stroke="#909399"/>
<line x1="500.5" x2="500.5" y2="20" stroke="#909399"/>
<line x1="510.5" x2="510.5" y2="20" stroke="#909399"/>
<line x1="520.5" x2="520.5" y2="20" stroke="#909399"/>
<line x1="530.5" x2="530.5" y2="20" stroke="#909399"/>
<line x1="540.5" x2="540.5" y2="20" stroke="#909399"/>
<line x1="550.5" x2="550.5" y2="20" stroke="#909399"/>
<line x1="560.5" x2="560.5" y2="20" stroke="#909399"/>
<line x1="570.5" x2="570.5" y2="20" stroke="#909399"/>
<line x1="580.5" x2="580.5" y2="20" stroke="#909399"/>
<line x1="590.5" x2="590.5" y2="20" stroke="#909399"/>
<line x1="600.5" x2="600.5" y2="20" stroke="#909399"/>
<line x1="610.5" x2="610.5" y2="20" stroke="#909399"/>
<line x1="620.5" x2="620.5" y2="20" stroke="#909399"/>
<line x1="630.5" x2="630.5" y2="20" stroke="#909399"/>
<line x1="640.5" x2="640.5" y2="20" stroke="#909399"/>
<line x1="650.5" x2="650.5" y2="20" stroke="#909399"/>
<line x1="660.5" x2="660.5" y2="20" stroke="#909399"/>
<line x1="670.5" x2="670.5" y2="20" stroke="#909399"/>
<line x1="680.5" x2="680.5" y2="20" stroke="#909399"/>
<line x1="690.5" x2="690.5" y2="20" stroke="#909399"/>
<line x1="700.5" x2="700.5" y2="20" stroke="#909399"/>
<line x1="710.5" x2="710.5" y2="20" stroke="#909399"/>
<line x1="720.5" x2="720.5" y2="20" stroke="#909399"/>
<line x1="730.5" x2="730.5" y2="20" stroke="#909399"/>
<line x1="740.5" x2="740.5" y2="20" stroke="#909399"/>
<line x1="750.5" x2="750.5" y2="20" stroke="#909399"/>
<line x1="760.5" x2="760.5" y2="20" stroke="#909399"/>
<line x1="770.5" x2="770.5" y2="20" stroke="#909399"/>
<line x1="780.5" x2="780.5" y2="20" stroke="#909399"/>
<line x1="790.5" x2="790.5" y2="20" stroke="#909399"/>
<line x1="800.5" x2="800.5" y2="20" stroke="#909399"/>
<line x1="810.5" x2="810.5" y2="20" stroke="#909399"/>
<line x1="820.5" x2="820.5" y2="20" stroke="#909399"/>
<line x1="830.5" x2="830.5" y2="20" stroke="#909399"/>
<line x1="840.5" x2="840.5" y2="20" stroke="#909399"/>
<line x1="850.5" x2="850.5" y2="20" stroke="#909399"/>
<line x1="860.5" x2="860.5" y2="20" stroke="#909399"/>
<line x1="870.5" x2="870.5" y2="20" stroke="#909399"/>
<line x1="880.5" x2="880.5" y2="20" stroke="#909399"/>
<line x1="890.5" x2="890.5" y2="20" stroke="#909399"/>
<line x1="900.5" x2="900.5" y2="20" stroke="#909399"/>
<line x1="910.5" x2="910.5" y2="20" stroke="#909399"/>
<line x1="920.5" x2="920.5" y2="20" stroke="#909399"/>
<line x1="930.5" x2="930.5" y2="20" stroke="#909399"/>
<line x1="940.5" x2="940.5" y2="20" stroke="#909399"/>
<line x1="950.5" x2="950.5" y2="20" stroke="#909399"/>
<line x1="960.5" x2="960.5" y2="20" stroke="#909399"/>
<line x1="970.5" x2="970.5" y2="20" stroke="#909399"/>
<line x1="980.5" x2="980.5" y2="20" stroke="#909399"/>
<line x1="990.5" x2="990.5" y2="20" stroke="#909399"/>
<line x1="1000.5" x2="1000.5" y2="20" stroke="#909399"/>
<line x1="1010.5" x2="1010.5" y2="20" stroke="#909399"/>
<line x1="1020.5" x2="1020.5" y2="20" stroke="#909399"/>
<line x1="1030.5" x2="1030.5" y2="20" stroke="#909399"/>
<line x1="1040.5" x2="1040.5" y2="20" stroke="#909399"/>
<line x1="1050.5" x2="1050.5" y2="20" stroke="#909399"/>
<line x1="1060.5" x2="1060.5" y2="20" stroke="#909399"/>
<line x1="1070.5" x2="1070.5" y2="20" stroke="#909399"/>
<line x1="1080.5" x2="1080.5" y2="20" stroke="#909399"/>
<line x1="1090.5" x2="1090.5" y2="20" stroke="#909399"/>
<line x1="1100.5" x2="1100.5" y2="20" stroke="#909399"/>
<line x1="1110.5" x2="1110.5" y2="20" stroke="#909399"/>
<line x1="1120.5" x2="1120.5" y2="20" stroke="#909399"/>
<line x1="1130.5" x2="1130.5" y2="20" stroke="#909399"/>
<line x1="1140.5" x2="1140.5" y2="20" stroke="#909399"/>
<line x1="1150.5" x2="1150.5" y2="20" stroke="#909399"/>
<line x1="1160.5" x2="1160.5" y2="20" stroke="#909399"/>
<line x1="1170.5" x2="1170.5" y2="20" stroke="#909399"/>
<line x1="1180.5" x2="1180.5" y2="20" stroke="#909399"/>
<line x1="1190.5" x2="1190.5" y2="20" stroke="#909399"/>
<line x1="1200.5" x2="1200.5" y2="20" stroke="#909399"/>
<line x1="1210.5" x2="1210.5" y2="20" stroke="#909399"/>
<line x1="1220.5" x2="1220.5" y2="20" stroke="#909399"/>
<line x1="1230.5" x2="1230.5" y2="20" stroke="#909399"/>
<line x1="1240.5" x2="1240.5" y2="20" stroke="#909399"/>
<line x1="1250.5" x2="1250.5" y2="20" stroke="#909399"/>
<line x1="1260.5" x2="1260.5" y2="20" stroke="#909399"/>
<line x1="1270.5" x2="1270.5" y2="20" stroke="#909399"/>
<line x1="1280.5" x2="1280.5" y2="20" stroke="#909399"/>
<line x1="1290.5" x2="1290.5" y2="20" stroke="#909399"/>
<line x1="1300.5" x2="1300.5" y2="20" stroke="#909399"/>
<line x1="1310.5" x2="1310.5" y2="20" stroke="#909399"/>
<line x1="1320.5" x2="1320.5" y2="20" stroke="#909399"/>
<line x1="1330.5" x2="1330.5" y2="20" stroke="#909399"/>
<line x1="1340.5" x2="1340.5" y2="20" stroke="#909399"/>
<line x1="1350.5" x2="1350.5" y2="20" stroke="#909399"/>
<line x1="1360.5" x2="1360.5" y2="20" stroke="#909399"/>
<line x1="1370.5" x2="1370.5" y2="20" stroke="#909399"/>
<line x1="1380.5" x2="1380.5" y2="20" stroke="#909399"/>
<line x1="1390.5" x2="1390.5" y2="20" stroke="#909399"/>
<line x1="1400.5" x2="1400.5" y2="20" stroke="#909399"/>
<line x1="1410.5" x2="1410.5" y2="20" stroke="#909399"/>
<line x1="1420.5" x2="1420.5" y2="20" stroke="#909399"/>
<line x1="1430.5" x2="1430.5" y2="20" stroke="#909399"/>
<line x1="1440.5" x2="1440.5" y2="20" stroke="#909399"/>
<line x1="1450.5" x2="1450.5" y2="20" stroke="#909399"/>
<line x1="1460.5" x2="1460.5" y2="20" stroke="#909399"/>
<line x1="1470.5" x2="1470.5" y2="20" stroke="#909399"/>
<line x1="1480.5" x2="1480.5" y2="20" stroke="#909399"/>
<line x1="1490.5" x2="1490.5" y2="20" stroke="#909399"/>
<line x1="1500.5" x2="1500.5" y2="20" stroke="#909399"/>
<line x1="1510.5" x2="1510.5" y2="20" stroke="#909399"/>
<line x1="1520.5" x2="1520.5" y2="20" stroke="#909399"/>
<line x1="1530.5" x2="1530.5" y2="20" stroke="#909399"/>
<line x1="1540.5" x2="1540.5" y2="20" stroke="#909399"/>
<line x1="1550.5" x2="1550.5" y2="20" stroke="#909399"/>
<line x1="1560.5" x2="1560.5" y2="20" stroke="#909399"/>
<line x1="1570.5" x2="1570.5" y2="20" stroke="#909399"/>
<line x1="1580.5" x2="1580.5" y2="20" stroke="#909399"/>
<line x1="1590.5" x2="1590.5" y2="20" stroke="#909399"/>
<line x1="1600.5" x2="1600.5" y2="20" stroke="#909399"/>
<line x1="1610.5" x2="1610.5" y2="20" stroke="#909399"/>
<line x1="1620.5" x2="1620.5" y2="20" stroke="#909399"/>
<line x1="1630.5" x2="1630.5" y2="20" stroke="#909399"/>
<line x1="1640.5" x2="1640.5" y2="20" stroke="#909399"/>
<line x1="1650.5" x2="1650.5" y2="20" stroke="#909399"/>
<line x1="1660.5" x2="1660.5" y2="20" stroke="#909399"/>
<line x1="1670.5" x2="1670.5" y2="20" stroke="#909399"/>
<line x1="1680.5" x2="1680.5" y2="20" stroke="#909399"/>
<line x1="1690.5" x2="1690.5" y2="20" stroke="#909399"/>
<line x1="1700.5" x2="1700.5" y2="20" stroke="#909399"/>
<line x1="1710.5" x2="1710.5" y2="20" stroke="#909399"/>
<line x1="1720.5" x2="1720.5" y2="20" stroke="#909399"/>
<line x1="1730.5" x2="1730.5" y2="20" stroke="#909399"/>
<line x1="1740.5" x2="1740.5" y2="20" stroke="#909399"/>
<line x1="1750.5" x2="1750.5" y2="20" stroke="#909399"/>
<line x1="1760.5" x2="1760.5" y2="20" stroke="#909399"/>
<line x1="1770.5" x2="1770.5" y2="20" stroke="#909399"/>
<line x1="1780.5" x2="1780.5" y2="20" stroke="#909399"/>
<line x1="1790.5" x2="1790.5" y2="20" stroke="#909399"/>
<line x1="1800.5" x2="1800.5" y2="20" stroke="#909399"/>
<line x1="1810.5" x2="1810.5" y2="20" stroke="#909399"/>
<line x1="1820.5" x2="1820.5" y2="20" stroke="#909399"/>
<line x1="1830.5" x2="1830.5" y2="20" stroke="#909399"/>
<line x1="1840.5" x2="1840.5" y2="20" stroke="#909399"/>
<line x1="1850.5" x2="1850.5" y2="20" stroke="#909399"/>
<line x1="1860.5" x2="1860.5" y2="20" stroke="#909399"/>
<line x1="1870.5" x2="1870.5" y2="20" stroke="#909399"/>
<line x1="1880.5" x2="1880.5" y2="20" stroke="#909399"/>
<line x1="1890.5" x2="1890.5" y2="20" stroke="#909399"/>
</g>
<defs>
<clipPath id="clip0_399_7711">
<rect width="1900" height="7" fill="white"/>
</clipPath>
</defs>
</svg>
