<svg width="220" height="11" viewBox="0 0 220 11" fill="none" xmlns="http://www.w3.org/2000/svg">
<path d="M5.0002 6.20001H7.4002V7.40001H3.8002V3.80001H7.4002V5.00001H5.0002V6.20001ZM9.8002 9.80001V1.40001H1.4002V9.80001H9.8002ZM11.0002 11H0.200195V0.200012H11.0002V11Z" fill="black"/>
<path d="M36.1908 1.40001H30.1908V5.00001H36.1908V1.40001ZM30.1908 9.80001H36.1908V6.20001H30.1908V9.80001ZM37.3908 0.200012V11H26.5908V9.80001H28.9908V1.40001H26.5908V0.200012H37.3908Z" fill="black"/>
<path d="M50.5861 0.200012V1.40001H40.9861V5.00001H50.5861V6.20001H40.9861V9.80001H50.5861V11H39.7861V0.200012H50.5861Z" fill="black"/>
<path d="M52.9814 11V0.200012H63.7814V1.40001H54.1814V5.00001H63.7814V11H52.9814ZM54.1814 9.80001H62.5814V6.20001H54.1814V9.80001Z" fill="black"/>
<path d="M74.5768 6.20001H68.5768V5.00001H74.5768V6.20001Z" fill="black"/>
<path d="M90.1721 0.200012V1.40001H80.5721V9.80001H90.1721V11H79.3721V0.200012H90.1721Z" fill="black"/>
<path d="M98.5674 1.40001V11H97.3674V1.40001H92.5674V0.200012H103.367V1.40001H98.5674Z" fill="black"/>
<path d="M105.763 0.200012H106.963V5.00001H115.363V0.200012H116.563V11H105.763V9.80001H115.363V6.20001H105.763V0.200012Z" fill="black"/>
<path d="M126.158 1.40001H122.558V8.60001H126.158V1.40001ZM127.358 0.200012V8.60001H129.758V11H128.558V9.80001H120.158V11H118.958V8.60001H121.358V0.200012H127.358Z" fill="black"/>
<path d="M141.753 9.80001V0.200012H142.953V11H132.153V0.200012H133.353V9.80001H141.753Z" fill="black"/>
<path d="M147.749 6.20001H145.349V0.200012H156.149V11H154.949V6.20001H148.949V11H145.349V9.80001H147.749V6.20001ZM154.949 5.00001V1.40001H146.549V5.00001H154.949Z" fill="black"/>
<path d="M166.944 0.200012V1.40001H162.144V9.80001H166.944V11H160.944V0.200012H166.944Z" fill="black"/>
<path d="M181.339 1.40001H172.939V9.80001H176.539V6.20001H177.739V9.80001H181.339V1.40001ZM182.539 0.200012V11H171.739V0.200012H182.539Z" fill="black"/>
<path d="M195.735 0.200012V1.40001H190.935V9.80001H195.735V11H184.935V9.80001H189.735V1.40001H184.935V0.200012H195.735Z" fill="black"/>
<path d="M207.73 1.40001H199.33V9.80001H207.73V1.40001ZM208.93 0.200012V11H198.13V0.200012H208.93Z" fill="black"/>
<path d="M213.725 0.200012H219.725V11H213.725V9.80001H218.525V1.40001H213.725V0.200012Z" fill="black"/>
</svg>
