<svg width="1920" height="1080" fill="none" xmlns="http://www.w3.org/2000/svg"><g clip-path="url(#a)"><path d="m1321.86 566.863 84.45 117.531-.02.02L1277.52 1080l-129.47-81.587 63.88-197.132a85.357 85.357 0 0 0 4.94-19.533c4.62-34.99-17.48-67.145-51.77-75.546-6.54-1.593-13.43-2.441-20.55-2.482L854 703.637l44.591-137.001 423.269.227Zm339.07-382.275-63.92 197.173a85.387 85.387 0 0 0-4.95 19.533c-4.59 34.948 17.53 67.124 51.77 75.504a85.93 85.93 0 0 0 20.59 2.483l290.56.124.02-.02-44.59 137.001-423.29-.27-84.45-117.529L1531.44 103l129.49 81.588Z" fill="url(#b)"/><path d="M854.501 704.001h292.869c5.07 0 10.13.536 15.09 1.598l1.88.403a63.742 63.742 0 0 1 21.63 9.044c4.01 2.628 7.71 5.7 11.02 9.156l.37.383a68.487 68.487 0 0 1 11.13 15.389l2.03 3.848a59.985 59.985 0 0 1 6.98 28.091v.428c0 3.766-.34 7.524-1.01 11.229l-1.99 10.931" stroke="url(#c)" stroke-width="2"/><path d="m886.501 604.501 11.5-37.5H1321.5l77.5 107" stroke="url(#d)" stroke-width="2"/><path d="m1277.5 1080 20-61.5" stroke="url(#e)" stroke-width="2"/><path d="M1919.5 588.001H1493l-82-114.5 25-76.5" stroke="url(#f)" stroke-width="2"/><path d="m1597.5 380.501-4 15-1 7.727a66.426 66.426 0 0 0-.16 15.565 66.423 66.423 0 0 0 5.68 20.535 66.797 66.797 0 0 0 10.21 15.855l1.44 1.662a60.203 60.203 0 0 0 12.11 10.675 60.092 60.092 0 0 0 11.05 5.812l2.09.837a73.068 73.068 0 0 0 19.85 4.859l9.73.973h290" stroke="url(#g)" stroke-width="2"/><g clip-path="url(#h)"><path d="m1586.1 394.001-4.07 15.678-1.01 8.094a70.672 70.672 0 0 0-.16 16.252 70.934 70.934 0 0 0 5.75 21.443 70.669 70.669 0 0 0 10.48 16.695l1.44 1.716a61.426 61.426 0 0 0 12.21 11.051 61.652 61.652 0 0 0 11.34 6.129l2.02.829a72.892 72.892 0 0 0 20.3 5.104l9.81 1.009H1949" stroke="url(#i)" stroke-width="2"/></g><path d="m1398.99 673.982 7.51 10.02-14 43.5" stroke="url(#j)" stroke-width="2"/><path d="m1148.5 999.001 32.5-100" stroke="url(#k)" stroke-width="2"/><path d="m1435.98 397.057 19.04-56.223" stroke="url(#l)" stroke-width="2"/><path d="m891.501 637.501 16-58H1314l63 84.5" stroke="url(#m)" stroke-width="2"/></g><defs><linearGradient id="b" x1="1404.5" y1="103" x2="1404.5" y2="1080" gradientUnits="userSpaceOnUse"><stop stop-color="#121417"/><stop offset=".529" stop-color="#191B1D"/><stop offset="1" stop-color="#121417"/></linearGradient><linearGradient id="c" x1="854.501" y1="749.251" x2="1217.5" y2="749.251" gradientUnits="userSpaceOnUse"><stop stop-color="#158782"/><stop offset=".534" stop-color="#24EDE5"/><stop offset="1" stop-color="#158782"/></linearGradient><linearGradient id="d" x1="886.501" y1="620.501" x2="1399" y2="620.501" gradientUnits="userSpaceOnUse"><stop stop-color="#158782"/><stop offset=".476" stop-color="#24EDE5"/><stop offset="1" stop-color="#158782"/></linearGradient><linearGradient id="e" x1="1287.5" y1="1018.5" x2="1287.5" y2="1080" gradientUnits="userSpaceOnUse"><stop stop-color="#158782"/><stop offset=".476" stop-color="#24EDE5"/><stop offset="1" stop-color="#158782"/></linearGradient><linearGradient id="f" x1="1665.25" y1="397.001" x2="1665.25" y2="588.001" gradientUnits="userSpaceOnUse"><stop stop-color="#158782"/><stop offset=".524" stop-color="#24EDE5"/><stop offset="1" stop-color="#158782"/></linearGradient><linearGradient id="g" x1="1591.5" y1="430.251" x2="1954.5" y2="430.251" gradientUnits="userSpaceOnUse"><stop stop-color="#158782"/><stop offset=".529" stop-color="#24EDE5"/><stop offset="1" stop-color="#158782"/></linearGradient><linearGradient id="i" x1="1580" y1="446.001" x2="1949" y2="446.001" gradientUnits="userSpaceOnUse"><stop stop-color="#113429"/><stop offset=".524" stop-color="#329A79"/><stop offset="1" stop-color="#113429"/></linearGradient><linearGradient id="j" x1="1399.5" y1="673.982" x2="1399.5" y2="727.502" gradientUnits="userSpaceOnUse"><stop stop-color="#158782"/><stop offset=".505" stop-color="#EAEEF3"/><stop offset="1" stop-color="#888A8D"/></linearGradient><linearGradient id="k" x1="1164.75" y1="899.001" x2="1164.75" y2="999.001" gradientUnits="userSpaceOnUse"><stop stop-color="#121417" stop-opacity=".84"/><stop offset=".519" stop-color="#DCDFE4"/><stop offset="1" stop-color="#7A7B7E"/></linearGradient><linearGradient id="l" x1="1510.75" y1="340" x2="1510.75" y2="481" gradientUnits="userSpaceOnUse"><stop stop-color="#888A8D"/><stop offset="0" stop-color="#EAEEF3" stop-opacity=".86"/><stop offset=".423" stop-color="#158782"/></linearGradient><linearGradient id="m" x1="891.501" y1="621.751" x2="1377" y2="621.751" gradientUnits="userSpaceOnUse"><stop stop-color="#113429"/><stop offset=".505" stop-color="#329A79"/><stop offset="1" stop-color="#113429"/></linearGradient><clipPath id="a"><path fill="#fff" transform="translate(854 103)" d="M0 0h1066v977H0z"/></clipPath><clipPath id="h"><path fill="#fff" transform="translate(1603 394.001)" d="M0 0h346v104H0z"/></clipPath></defs></svg>