<svg width="220" height="11" fill="none" xmlns="http://www.w3.org/2000/svg"><path d="M5 6.2h2.4v1.2H3.8V3.8h3.6V5H5v1.2Zm4.8 3.6V1.4H1.4v8.4h8.4ZM11 11H.2V.2H11V11Zm25.19-9.6h-6V5h6V1.4Zm-6 8.4h6V6.2h-6v3.6Zm7.2-9.6V11h-10.8V9.8h2.4V1.4h-2.4V.2h10.8Zm13.196 0v1.2h-9.6V5h9.6v1.2h-9.6v3.6h9.6V11h-10.8V.2h10.8ZM52.981 11V.2h10.8v1.2h-9.6V5h9.6v6h-10.8Zm1.2-1.2h8.4V6.2h-8.4v3.6Zm20.396-3.6h-6V5h6v1.2Zm15.595-6v1.2h-9.6v8.4h9.6V11h-10.8V.2h10.8Zm8.395 1.2V11h-1.2V1.4h-4.8V.2h10.8v1.2h-4.8Zm7.196-1.2h1.2V5h8.4V.2h1.2V11h-10.8V9.8h9.6V6.2h-9.6v-6Zm20.395 1.2h-3.6v7.2h3.6V1.4Zm1.2-1.2v8.4h2.4V11h-1.2V9.8h-8.4V11h-1.2V8.6h2.4V.2h6Zm14.395 9.6V.2h1.2V11h-10.8V.2h1.2v9.6h8.4Zm5.996-3.6h-2.4v-6h10.8V11h-1.2V6.2h-6V11h-3.6V9.8h2.4V6.2Zm7.2-1.2V1.4h-8.4V5h8.4ZM166.944.2v1.2h-4.8v8.4h4.8V11h-6V.2h6Zm14.395 1.2h-8.4v8.4h3.6V6.2h1.2v3.6h3.6V1.4Zm1.2-1.2V11h-10.8V.2h10.8Zm13.196 0v1.2h-4.8v8.4h4.8V11h-10.8V9.8h4.8V1.4h-4.8V.2h10.8Zm11.995 1.2h-8.4v8.4h8.4V1.4Zm1.2-1.2V11h-10.8V.2h10.8Zm4.795 0h6V11h-6V9.8h4.8V1.4h-4.8V.2Z" fill="#000"/></svg>