<svg width="18" height="18" viewBox="0 0 18 18" fill="none" xmlns="http://www.w3.org/2000/svg">
<g clip-path="url(#clip0_327_800)">
<path d="M3.55078 0.818178H14.4492C14.8417 0.817812 15.2305 0.894432 15.5932 1.04366C15.9559 1.19289 16.2855 1.4118 16.5631 1.68784C16.8406 1.96389 17.0607 2.29167 17.2108 2.65243C17.3608 3.01317 17.4379 3.39981 17.4375 3.79021V14.2098C17.4379 14.6002 17.3608 14.9868 17.2108 15.3476C17.0607 15.7083 16.8406 16.0361 16.5631 16.3121C16.2855 16.5882 15.9559 16.8071 15.5932 16.9563C15.2305 17.1056 14.8417 17.1822 14.4492 17.1818H3.55078C3.15825 17.1822 2.7695 17.1056 2.40678 16.9563C2.04406 16.8071 1.71448 16.5882 1.43692 16.3121C1.15936 16.0361 0.939264 15.7083 0.789217 15.3476C0.639176 14.9868 0.562133 14.6002 0.562501 14.2098V3.79021C0.562133 3.39981 0.639176 3.01317 0.789217 2.65243C0.939264 2.29167 1.15936 1.96389 1.43692 1.68784C1.71448 1.4118 2.04406 1.19289 2.40678 1.04366C2.7695 0.894432 3.15825 0.817812 3.55078 0.818178Z" fill="#330000"/>
<path d="M8.62802 11.1644H6.0124L5.47802 12.753C5.47205 12.7819 5.45503 12.8077 5.43031 12.8252C5.40559 12.8427 5.37496 12.8507 5.34442 12.8476H4.02255C3.9452 12.8476 3.92411 12.807 3.9452 12.7259L6.20927 6.4595C6.23037 6.39186 6.25146 6.31751 6.27958 6.23641C6.30788 6.09153 6.322 5.94442 6.32177 5.79699C6.31963 5.78008 6.3243 5.76301 6.33471 5.74921C6.34517 5.73541 6.36064 5.72591 6.37802 5.72264H8.19911C8.25536 5.72264 8.28349 5.74293 8.29052 5.7767L10.8569 12.7394C10.878 12.8138 10.8569 12.8476 10.7866 12.8476H9.31708C9.29222 12.8499 9.2673 12.8437 9.24677 12.8301C9.22618 12.8165 9.21122 12.7964 9.20458 12.7732L8.62802 11.1644ZM6.42021 9.79211H8.20615C8.16396 9.65013 8.10771 9.48115 8.04443 9.30541C7.98115 9.12966 7.91787 8.92686 7.85458 8.72406C7.7913 8.52126 7.72099 8.3117 7.65068 8.10213C7.58036 7.89257 7.51708 7.69653 7.46083 7.5005C7.40458 7.30446 7.35536 7.13548 7.30615 6.97321H7.29208C7.22891 7.26786 7.1491 7.55897 7.05302 7.84528C6.94755 8.16971 6.84208 8.50773 6.72958 8.8457C6.63115 9.19048 6.52568 9.5082 6.42021 9.79211ZM12.3897 6.87857C12.2743 6.88102 12.1596 6.86133 12.0521 6.82075C11.9447 6.78011 11.8468 6.71935 11.764 6.64201C11.6029 6.47264 11.5171 6.24944 11.5249 6.02008C11.5207 5.90831 11.5412 5.79699 11.5847 5.6933C11.6283 5.58966 11.6942 5.49601 11.778 5.41845C11.947 5.26487 12.1713 5.18009 12.4038 5.18185C12.678 5.18185 12.889 5.26297 13.0436 5.41845C13.1994 5.58235 13.2827 5.79813 13.2757 6.02008C13.28 6.1343 13.2604 6.24819 13.2181 6.35499C13.1758 6.46179 13.1118 6.55942 13.0296 6.64201C12.9467 6.72311 12.8467 6.78622 12.7364 6.82702C12.626 6.86788 12.5078 6.88544 12.3897 6.87857ZM11.6022 12.7462V7.54108C11.6022 7.47344 11.6304 7.44644 11.6936 7.44644H13.0858C13.1491 7.44644 13.1772 7.48021 13.1772 7.54108V12.7462C13.1772 12.8205 13.1491 12.8544 13.0858 12.8544H11.7077C11.6929 12.8555 11.6781 12.8535 11.6642 12.8484C11.6504 12.8432 11.638 12.8352 11.6278 12.8247C11.6177 12.8144 11.6101 12.8019 11.6057 12.7883C11.6012 12.7747 11.6 12.7603 11.6022 12.7462Z" fill="#FF9A00"/>
</g>
<defs>
<clipPath id="clip0_327_800">
<rect width="18" height="18" fill="white"/>
</clipPath>
</defs>
</svg>
