<svg width="20" height="20" viewBox="0 0 20 20" fill="none" xmlns="http://www.w3.org/2000/svg">
<path d="M4.24805 1.36365H15.752C17.4961 1.36365 18.9062 2.76614 18.9062 4.50079V15.4992C18.9062 17.2339 17.4961 18.6364 15.752 18.6364H4.24805C2.50391 18.6364 1.09375 17.2339 1.09375 15.4992V4.50079C1.09375 2.76614 2.50391 1.36365 4.24805 1.36365Z" fill="#001E36"/>
<path d="M4.65625 13.448V6.09126C4.65625 6.04122 4.67852 6.01262 4.73047 6.01262C4.85664 6.01262 4.97539 6.01262 5.14609 6.00548C5.32422 5.99832 5.50977 5.99832 5.71016 5.99117C5.91055 5.98402 6.12578 5.98402 6.35586 5.97688C6.58594 5.96973 6.80859 5.96973 7.03125 5.96973C7.63984 5.96973 8.14453 6.04122 8.56016 6.19136C8.93125 6.31288 9.27266 6.51307 9.55469 6.77763C9.79219 7.00638 9.97773 7.28522 10.0965 7.59261C10.2078 7.89293 10.2672 8.20033 10.2672 8.52206C10.2672 9.13691 10.1188 9.6445 9.82188 10.0449C9.525 10.4452 9.10938 10.7455 8.62695 10.9171C8.12227 11.0958 7.56562 11.1602 6.95703 11.1602C6.77891 11.1602 6.66016 11.1602 6.58594 11.153C6.51172 11.1458 6.40781 11.1458 6.2668 11.1458V13.4408C6.27422 13.4908 6.23711 13.5337 6.18516 13.5409H4.74531C4.68594 13.5409 4.65625 13.5123 4.65625 13.448ZM6.27422 7.39242V9.79466C6.37813 9.8018 6.47461 9.80894 6.56367 9.80894H6.95703C7.24648 9.80894 7.53594 9.76604 7.81055 9.68025C8.04805 9.61588 8.25586 9.48006 8.41914 9.30135C8.575 9.12258 8.64922 8.87955 8.64922 8.56495C8.65664 8.34334 8.59727 8.12168 8.47852 7.92863C8.35234 7.74277 8.17422 7.59975 7.95898 7.52116C7.68438 7.4139 7.3875 7.37101 7.0832 7.37814C6.89023 7.37814 6.71953 7.37814 6.57852 7.38528C6.43008 7.37814 6.32617 7.38528 6.27422 7.39242ZM14.8984 9.35852C14.6758 9.24412 14.4383 9.16547 14.1859 9.11544C13.9113 9.05826 13.6367 9.02251 13.3547 9.02251C13.2063 9.01537 13.0504 9.03679 12.9094 9.07254C12.8129 9.09402 12.7313 9.14405 12.6793 9.21556C12.6422 9.27273 12.6199 9.34424 12.6199 9.40855C12.6199 9.47292 12.6496 9.53724 12.6941 9.59447C12.7609 9.67311 12.85 9.73743 12.9465 9.78752C13.1172 9.8733 13.2953 9.9519 13.4734 10.0234C13.8742 10.1521 14.2602 10.3309 14.6164 10.5453C14.8613 10.6955 15.0617 10.8956 15.2027 11.1387C15.3215 11.3675 15.3809 11.6177 15.3734 11.8751C15.3809 12.2111 15.277 12.5471 15.084 12.826C14.8762 13.1119 14.5867 13.3335 14.2527 13.4623C13.8891 13.6124 13.4437 13.691 12.9094 13.691C12.568 13.691 12.234 13.6624 11.9 13.5981C11.6402 13.5552 11.3805 13.4766 11.143 13.3693C11.091 13.3407 11.0539 13.2907 11.0613 13.2335V11.9895C11.0613 11.968 11.0687 11.9395 11.091 11.9251C11.1133 11.9109 11.1355 11.918 11.1578 11.9323C11.4473 12.0967 11.7516 12.2111 12.0781 12.2826C12.3602 12.3541 12.657 12.3899 12.9539 12.3899C13.2359 12.3899 13.4363 12.3541 13.5699 12.2898C13.6887 12.2397 13.7703 12.1182 13.7703 11.9895C13.7703 11.8894 13.7109 11.7965 13.5922 11.7035C13.4734 11.6106 13.2285 11.5033 12.8648 11.3675C12.4863 11.2388 12.1375 11.0673 11.8109 10.8527C11.5809 10.6955 11.3879 10.4881 11.2469 10.2451C11.1281 10.0163 11.0687 9.76604 11.0762 9.51582C11.0762 9.20836 11.1652 8.91524 11.3285 8.65074C11.5141 8.36476 11.7887 8.13596 12.1078 7.993C12.4566 7.82142 12.8945 7.74277 13.4215 7.74277C13.7258 7.74277 14.0375 7.76419 14.3418 7.80714C14.5645 7.8357 14.7797 7.89293 14.9801 7.97158C15.0098 7.97872 15.0395 8.00728 15.0543 8.03589C15.0617 8.06451 15.0691 8.09306 15.0691 8.12168V9.28701C15.0691 9.31563 15.0543 9.34424 15.032 9.35852C14.9652 9.3728 14.9281 9.3728 14.8984 9.35852Z" fill="#31A8FF"/>
</svg>
