<svg width="18" height="18" viewBox="0 0 18 18" fill="none" xmlns="http://www.w3.org/2000/svg">
<g clip-path="url(#clip0_327_809)">
<path d="M3.1875 0H14.8125C16.575 0 18 1.46154 18 3.26923V14.7308C18 16.5385 16.575 18 14.8125 18H3.1875C1.425 18 0 16.5385 0 14.7308V3.26923C0 1.46154 1.425 0 3.1875 0Z" fill="#00005B"/>
<path d="M7.22978 10.7693H4.43978L3.86978 12.5846C3.85478 12.6539 3.79478 12.7 3.72728 12.6923H2.31728C2.23478 12.6923 2.21228 12.6462 2.23478 12.5539L4.64978 5.45388C4.67228 5.37695 4.69478 5.30772 4.72478 5.21541C4.75478 5.05388 4.76978 4.88464 4.76978 4.71541C4.76228 4.67695 4.79228 4.63849 4.82978 4.6308H4.85228H6.77228C6.82478 4.6308 6.86228 4.65388 6.86978 4.69234L9.60728 12.5385C9.62978 12.6231 9.60728 12.6616 9.53228 12.6616H7.96478C7.91228 12.6693 7.85978 12.6308 7.84478 12.577L7.22978 10.7308V10.7693ZM4.87478 9.23849H6.77978C6.73478 9.07695 6.67478 8.88464 6.60728 8.68464C6.53978 8.47695 6.47228 8.25388 6.40478 8.02311C6.32978 7.78464 6.26228 7.55387 6.18728 7.31541C6.11228 7.07695 6.04478 6.85387 5.98478 6.6308C5.92478 6.41541 5.87228 6.21541 5.81978 6.0308H5.80478C5.73728 6.36157 5.65478 6.69234 5.54978 7.02311C5.43728 7.39234 5.32478 7.77695 5.20478 8.16157C5.10728 8.55387 4.98728 8.91541 4.87478 9.23849Z" fill="#9999FF"/>
<path d="M14.0246 10.077H11.6471C11.6771 10.3154 11.7521 10.5539 11.8796 10.7616C12.0146 10.9693 12.2021 11.1308 12.4271 11.2231C12.7271 11.3539 13.0571 11.4231 13.3871 11.4154C13.6496 11.4077 13.9121 11.3847 14.1671 11.3308C14.3996 11.3 14.6246 11.2385 14.8346 11.1539C14.8721 11.1231 14.8946 11.1385 14.8946 11.2154V12.3923C14.8946 12.4231 14.8871 12.4539 14.8796 12.4847C14.8646 12.5077 14.8496 12.5231 14.8271 12.5385C14.5871 12.6462 14.3396 12.7231 14.0771 12.7693C13.7246 12.8385 13.3721 12.8693 13.0121 12.8616C12.4421 12.8616 11.9621 12.7693 11.5721 12.5923C11.2046 12.4308 10.8821 12.177 10.6271 11.8616C10.3871 11.5616 10.2146 11.2231 10.1096 10.8539C10.0046 10.4923 9.95215 10.1154 9.95215 9.73081C9.95215 9.31542 10.0121 8.90773 10.1396 8.50773C10.2596 8.12312 10.4471 7.76927 10.7021 7.45389C10.9496 7.14619 11.2571 6.90004 11.6096 6.72312C11.9621 6.54619 12.3821 6.48465 12.8621 6.48465C13.2596 6.47696 13.6571 6.55389 14.0246 6.72312C14.3321 6.86158 14.6021 7.06927 14.8121 7.3385C15.0071 7.60004 15.1646 7.89235 15.2621 8.21542C15.3596 8.52312 15.4046 8.8385 15.4046 9.15389C15.4046 9.3385 15.3971 9.50004 15.3896 9.64619C15.3746 9.79235 15.3671 9.90004 15.3596 9.96927C15.3521 10.0231 15.3071 10.0693 15.2546 10.0693C15.2096 10.0693 15.1271 10.077 15.0071 10.0847C14.8871 10.1 14.7446 10.1077 14.5721 10.1077C14.3996 10.1077 14.2196 10.077 14.0246 10.077ZM11.6471 8.95389H13.2296C13.4246 8.95389 13.5671 8.95389 13.6571 8.94619C13.7171 8.9385 13.7771 8.92312 13.8296 8.88465V8.80773C13.8296 8.70773 13.8146 8.61542 13.7846 8.52312C13.6496 8.09235 13.2521 7.80004 12.8096 7.81542C12.3971 7.79235 12.0071 8.01542 11.8121 8.40004C11.7221 8.57696 11.6696 8.76158 11.6471 8.95389Z" fill="#9999FF"/>
</g>
<defs>
<clipPath id="clip0_327_809">
<rect width="18" height="18" fill="white"/>
</clipPath>
</defs>
</svg>
