<svg  viewBox="0 0 47 52" fill="none" xmlns="http://www.w3.org/2000/svg">
						<path d="M46.5744 13.7586L41.4297 12.1143V22.131H46.5635C46.5668 19.1841 46.5706 16.3603 46.5744 13.7586Z" fill="#0d0d0d"></path>
						<path d="M38.3255 7.80454L33.1992 6.16016V22.1306H38.3255C38.3328 17.0508 38.3217 12.1217 38.3255 7.80454Z" fill="#0d0d0d"></path>
						<path d="M5.51962 43.6691V12.3154L0.578125 13.8948C0.589232 23.7724 0.604131 37.0178 0.578125 47.8329L5.51962 43.6691Z" fill="#0d0d0d"></path>
						<path d="M32.1527 25.459L0.578125 52.0657H13.7837L35.819 33.4422V45.5918H25.501L33.1986 52.0657H46.5781V25.459H32.1527Z" fill="#0d0d0d"></path>
						<path d="M8.624 41.0477L13.7061 36.7692V6.35645L8.60938 8.03016C8.62048 17.6848 8.65001 30.3804 8.624 41.0477Z" fill="#0d0d0d"></path>
						<path d="M16.8111 34.1523L21.9116 29.8561V0.399414L16.793 2.04845C16.8038 11.4219 16.8295 23.5637 16.8111 34.1523Z" fill="#0d0d0d"></path>
						<path d="M30.0939 2.10334L25.0156 0.399414V27.2396L30.0939 22.9608V2.10334Z" fill="#0d0d0d"></path>
						</svg>