<svg width="18" height="18" viewBox="0 0 18 18" fill="none" xmlns="http://www.w3.org/2000/svg">
<g clip-path="url(#clip0_2009_85)">
<path d="M14.5595 12.3003C13.8462 13.0072 12.8484 13.4069 11.7676 13.4083C10.6861 13.4104 9.68757 13.0135 8.97425 12.3088C8.62553 11.9651 8.36995 11.5711 8.21111 11.1496C8.05589 10.7359 7.99668 10.2934 8.03639 9.85516C8.07466 9.42741 8.20462 9.01158 8.41904 8.63572C8.6277 8.26828 8.91433 7.9366 9.2681 7.65611C9.9612 7.10705 10.8435 6.81043 11.7676 6.80903C12.6917 6.80762 13.5733 7.10284 14.2671 7.6491C14.6202 7.92889 14.9068 8.25916 15.1147 8.62591C15.3291 9.00176 15.4598 9.41689 15.4981 9.84464C15.5378 10.2836 15.4779 10.7254 15.3227 11.1398C15.1638 11.5605 14.9075 11.9553 14.5595 12.3003Z" fill="white"/>
<path d="M9.46103 9.90002C9.49352 9.32852 9.78231 8.82434 10.2169 8.46741C10.6436 8.1161 11.2183 7.90222 11.8443 7.90222C12.471 7.90292 13.045 8.1168 13.4716 8.46741C13.9063 8.82504 14.1951 9.32852 14.2283 9.90002C14.2615 10.4876 14.0182 11.0339 13.5915 11.4385C13.1569 11.8501 12.5374 12.1089 11.8443 12.1089C11.1512 12.1089 10.531 11.8501 10.0964 11.4385C9.6704 11.0339 9.42782 10.4876 9.46103 9.90002Z" fill="#005385"/>
<path d="M5.66444 11.0571C5.66877 11.2801 5.74241 11.7148 5.85215 12.0549C6.08391 12.7737 6.47667 13.4391 7.02393 14.0254C7.58563 14.6277 8.27585 15.1116 9.07436 15.4545C9.91403 15.8156 10.823 16 11.7666 15.9979C12.7103 15.9965 13.6192 15.8093 14.4582 15.4454C15.256 15.0983 15.9462 14.613 16.5072 14.0092C17.0537 13.4202 17.4458 12.754 17.6775 12.0353C17.793 11.677 17.8674 11.3074 17.8977 10.9337C17.9266 10.569 17.9143 10.2016 17.8616 9.83905C17.7577 9.128 17.5042 8.46114 17.1144 7.85317C16.757 7.295 16.2978 6.80554 15.7513 6.39322L15.752 6.39252L10.2375 2.28052C10.2331 2.27701 10.2281 2.27281 10.2238 2.2693C9.8606 2.00003 9.25269 2.00073 8.85488 2.2714C8.45201 2.54488 8.40653 2.99717 8.76391 3.28257L8.76247 3.28327L11.0627 5.10086L4.05008 5.10787H4.04069C3.46166 5.10857 2.90429 5.47812 2.79383 5.94443C2.6812 6.41986 3.07468 6.81395 3.67754 6.81676L3.67682 6.81886L7.23114 6.81185L0.888515 11.5402C0.880573 11.5465 0.871909 11.5521 0.86469 11.5578C0.266887 12.0023 0.0733959 12.7428 0.449549 13.2112C0.8322 13.6874 1.64515 13.6881 2.25018 13.2134L5.71136 10.4624C5.71136 10.4624 5.66083 10.8341 5.66444 11.0571ZM14.5593 12.3004C13.846 13.0072 12.8482 13.4069 11.7674 13.4083C10.6858 13.4104 9.68733 13.0135 8.97401 12.3088C8.62529 11.9652 8.36971 11.5711 8.21087 11.1496C8.05564 10.7359 7.99644 10.2934 8.03615 9.85518C8.07442 9.42743 8.20437 9.0116 8.4188 8.63574C8.62746 8.2683 8.91408 7.93662 9.26785 7.65613C9.96096 7.10707 10.8432 6.81045 11.7674 6.80904C12.6915 6.80764 13.573 7.10286 14.2669 7.64911C14.6199 7.9289 14.9065 8.25918 15.1145 8.62592C15.3289 9.00178 15.4596 9.41691 15.4978 9.84466C15.5376 10.2836 15.4776 10.7254 15.3224 11.1398C15.1636 11.5606 14.9073 11.9554 14.5593 12.3004Z" fill="#FF7021"/>
</g>
<defs>
<clipPath id="clip0_2009_85">
<rect width="18" height="14" fill="white" transform="translate(0 2)"/>
</clipPath>
</defs>
</svg>
