<svg width="18" height="18" viewBox="0 0 18 18" fill="none" xmlns="http://www.w3.org/2000/svg">
<g clip-path="url(#clip0_2009_81)">
<path d="M15.3504 3.8409L14.2316 16.1327L9.20283 17.5L4.18787 16.1346L3.07031 3.8409H15.3504Z" fill="#264DE4"/>
<path d="M13.2735 15.35L14.2295 4.84608H9.20996V16.4549L13.2735 15.35Z" fill="#2965F1"/>
<path d="M5.63281 9.40564L5.7706 10.9134H9.21086V9.40564H5.63281Z" fill="#EBEBEB"/>
<path d="M9.21038 6.35388H9.20506H5.35547L5.49522 7.86167H9.21038V6.35388Z" fill="#EBEBEB"/>
<path d="M9.21044 14.8902V13.3215L9.2037 13.3233L7.49156 12.8698L7.38211 11.6673H6.55014H5.83887L6.05425 14.0347L9.20336 14.8921L9.21044 14.8902Z" fill="#EBEBEB"/>
<path d="M5.95996 0.5H7.82194V1.26367H6.73861V2.02734H7.82194V2.79102H5.95996V0.5Z" fill="black"/>
<path d="M8.19531 0.5H10.0573V1.16406H8.97396V1.29688H10.0573V2.82422H8.19531V2.12695H9.27865V1.99414H8.19531V0.5Z" fill="black"/>
<path d="M10.4297 0.5H12.2917V1.16406H11.2083V1.29688H12.2917V2.82422H10.4297V2.12695H11.513V1.99414H10.4297V0.5Z" fill="black"/>
<path d="M11.0981 10.9134L10.9197 12.8689L9.20508 13.3228V14.8914L12.3567 14.0347L12.3798 13.78L12.7411 9.81053L12.7786 9.40565L13.0561 6.35388H9.20508V7.86167H11.3713L11.2315 9.40565H9.20508V10.9134H11.0981Z" fill="white"/>
</g>
<defs>
<clipPath id="clip0_2009_81">
<rect width="18" height="18" fill="white"/>
</clipPath>
</defs>
</svg>
