<svg width="20" height="20" viewBox="0 0 20 20" fill="none" xmlns="http://www.w3.org/2000/svg">
<path d="M7.03125 18.6364C8.67 18.6364 10 17.3467 10 15.7576V12.8788H7.03125C5.3925 12.8788 4.0625 14.1685 4.0625 15.7576C4.0625 17.3467 5.3925 18.6364 7.03125 18.6364Z" fill="#0ACF83"/>
<path d="M4.0625 10C4.0625 8.41091 5.3925 7.12122 7.03125 7.12122H10V12.8788H7.03125C5.3925 12.8788 4.0625 11.5891 4.0625 10Z" fill="#A259FF"/>
<path d="M4.0625 4.24244C4.0625 2.65334 5.3925 1.36365 7.03125 1.36365H10V7.12122H7.03125C5.3925 7.12122 4.0625 5.83153 4.0625 4.24244Z" fill="#F24E1E"/>
<path d="M10 1.36365H12.9688C14.6075 1.36365 15.9375 2.65334 15.9375 4.24244C15.9375 5.83153 14.6075 7.12122 12.9688 7.12122H10V1.36365Z" fill="#FF7262"/>
<path d="M15.9375 10C15.9375 11.5891 14.6075 12.8788 12.9688 12.8788C11.33 12.8788 10 11.5891 10 10C10 8.41091 11.33 7.12122 12.9688 7.12122C14.6075 7.12122 15.9375 8.41091 15.9375 10Z" fill="#1ABCFE"/>
</svg>
