<svg width="18" height="18" viewBox="0 0 18 18" fill="none" xmlns="http://www.w3.org/2000/svg">
<g clip-path="url(#clip0_330_989)">
<path d="M3.81055 0H4.61914V0.801562H5.36445V0H6.17305V2.42578H5.36445V1.61719H4.62617V2.42578H3.81055M7.2418 0.808594H6.52813V0H8.76758V0.808594H8.05039V2.42578H7.2418M9.12266 0H9.96992L10.4902 0.854297L11.0105 0H11.8578V2.42578H11.0492V1.22344L10.4832 2.09531L9.91719 1.22344V2.42578H9.12266M12.2586 0H13.0672V1.62422H14.2133V2.42578H12.2586" fill="black"/>
<path d="M3.7832 16.5586L2.62305 3.53671H15.3777L14.2176 16.5516L8.98984 18" fill="#E44D26"/>
<path d="M9 16.8926V4.60547H14.2137L13.2188 15.7148" fill="#F16529"/>
<path d="M4.99219 6.19804H9V7.79414H6.74297L6.89062 9.4289H9V11.0215H5.42812M5.49844 11.823H7.10156L7.21406 13.0992L9 13.5773V15.2437L5.72344 14.3297" fill="#EBEBEB"/>
<path d="M12.9939 6.19804H8.99316V7.79414H12.8463M12.7021 9.4289H8.99316V11.025H10.9619L10.7756 13.0992L8.99316 13.5773V15.2367L12.2627 14.3297" fill="white"/>
</g>
<defs>
<clipPath id="clip0_330_989">
<rect width="18" height="18" fill="white"/>
</clipPath>
</defs>
</svg>
