<svg width="18" height="18" viewBox="0 0 18 18" fill="none" xmlns="http://www.w3.org/2000/svg">
<g clip-path="url(#clip0_330_1012)">
<path d="M0 0H18V18H0V0Z" fill="#F0DB4F"/>
<path d="M16.5273 13.707C16.3955 12.8857 15.86 12.1962 14.2738 11.5528C13.7229 11.2996 13.1086 11.1183 12.9256 10.7008C12.8605 10.4578 12.852 10.3209 12.893 10.1738C13.0111 9.69638 13.5809 9.54753 14.0326 9.68441C14.3235 9.78194 14.5989 10.0061 14.7649 10.3637C15.5417 9.86066 15.54 9.86407 16.0824 9.51846C15.8839 9.21047 15.7778 9.06844 15.6478 8.93671C15.1807 8.41484 14.5442 8.14621 13.5261 8.16674C13.3499 8.18899 13.172 8.21293 12.9957 8.23519C12.4875 8.36351 12.0033 8.63043 11.7193 8.98804C10.8672 9.95477 11.1102 11.647 12.147 12.3434C13.1685 13.1099 14.6691 13.2844 14.8607 14.0013C15.0472 14.8791 14.2157 15.1631 13.3892 15.0622C12.7801 14.9356 12.4413 14.6259 12.0752 14.0629C11.401 14.4531 11.401 14.4531 10.7081 14.8517C10.8723 15.211 11.0451 15.3736 11.3206 15.685C12.6244 17.0076 15.8873 16.9426 16.4725 14.9407C16.4965 14.8722 16.6539 14.4137 16.5273 13.707ZM9.78582 8.27281H8.10217C8.10217 9.72718 8.09534 11.1713 8.09534 12.6257C8.09534 13.5513 8.14325 14.4 7.99268 14.6601C7.74629 15.1717 7.10808 15.1084 6.8172 15.0091C6.5212 14.8637 6.37063 14.6566 6.1961 14.3641C6.14819 14.2802 6.11226 14.2152 6.10027 14.2101C5.64344 14.489 5.18829 14.7696 4.73145 15.0485C4.95903 15.5156 5.29437 15.9211 5.72384 16.1846C6.36548 16.5696 7.22783 16.6876 8.12956 16.4806C8.71644 16.3095 9.22289 15.9553 9.4881 15.4163C9.87137 14.7097 9.78924 13.8542 9.78582 12.908C9.79437 11.3646 9.78582 9.82129 9.78582 8.27281Z" fill="#323330"/>
</g>
<defs>
<clipPath id="clip0_330_1012">
<rect width="18" height="18" fill="white"/>
</clipPath>
</defs>
</svg>
