<svg width="18" height="18" viewBox="0 0 18 18" fill="none" xmlns="http://www.w3.org/2000/svg">
<g clip-path="url(#clip0_330_1020)">
<path d="M1.05433 12.2595C1.07158 12.2985 1.09108 12.3345 1.11208 12.3705C1.12183 12.3915 1.13533 12.4132 1.14733 12.4327C1.16683 12.4717 1.18783 12.5092 1.20808 12.5467L1.32583 12.7447C1.34758 12.7815 1.36858 12.8175 1.39333 12.8535C1.43458 12.924 1.48333 12.993 1.52608 13.0635C1.54558 13.0927 1.56358 13.122 1.58533 13.1512C1.66783 13.2795 1.74283 13.386 1.82308 13.4895C1.88008 13.5667 1.93708 13.6425 1.99858 13.7182C2.01883 13.7467 2.04133 13.7752 2.06233 13.8037L2.22808 14.0047C2.24833 14.028 2.26857 14.055 2.29033 14.079C2.36383 14.1675 2.44183 14.253 2.51982 14.34C2.51982 14.3415 2.52208 14.343 2.52358 14.3452C2.62033 14.4667 2.72458 14.5747 2.83858 14.6707L2.84158 14.6737C2.90158 14.7352 2.96158 14.796 3.02533 14.856L3.10108 14.9287C3.18433 15.0067 3.26758 15.084 3.35533 15.159C3.35683 15.159 3.35758 15.1605 3.35908 15.1612L3.40182 15.1987C3.47832 15.2655 3.55558 15.3315 3.63433 15.393L3.72808 15.4717C3.79183 15.5227 3.85783 15.5707 3.92308 15.621L4.02507 15.699C4.09483 15.7515 4.16908 15.8025 4.24032 15.8535C4.26657 15.8722 4.29283 15.891 4.31983 15.9082L4.34158 15.9255L4.55233 16.0635L4.64233 16.1235C4.75258 16.194 4.86208 16.26 4.97158 16.326C5.00308 16.3417 5.03457 16.359 5.06383 16.377C5.14482 16.4235 5.22883 16.4707 5.31058 16.5135C5.35558 16.539 5.40207 16.5607 5.44858 16.584C5.50483 16.6155 5.56333 16.6462 5.62333 16.6777C5.63983 16.683 5.65333 16.6882 5.66683 16.6957L5.66983 16.6927C5.69458 16.704 5.71783 16.716 5.74183 16.728C5.83183 16.773 5.92558 16.8157 6.02308 16.8577C6.04108 16.8652 6.06058 16.8727 6.08008 16.8832C6.18808 16.9305 6.29608 16.9755 6.40783 17.019C6.43333 17.0265 6.46033 17.0392 6.48658 17.049C6.58783 17.0872 6.69208 17.1262 6.79558 17.163L6.83308 17.1765C6.94783 17.2155 7.06108 17.253 7.17808 17.2882C7.20508 17.2957 7.23283 17.3055 7.26133 17.313C7.38058 17.349 7.49608 17.3917 7.61683 17.4142C15.3216 18.8115 17.5603 12.8047 17.5603 12.8047C15.6793 15.2422 12.3411 15.885 9.17982 15.1695C9.06283 15.1425 8.94583 15.105 8.82733 15.0705C8.66007 15.0232 8.49424 14.9709 8.33008 14.9137L8.40133 14.9355L8.35483 14.9175C8.25283 14.883 8.15458 14.8447 8.05482 14.8065C8.03041 14.7961 8.00565 14.7866 7.98058 14.778L7.97233 14.7757C7.86208 14.7315 7.75483 14.6865 7.64833 14.6392C7.62508 14.6317 7.60558 14.6212 7.58232 14.6122C7.45618 14.5573 7.33115 14.4998 7.20732 14.4397L7.31083 14.4855C7.28382 14.4736 7.2573 14.4605 7.23133 14.4465C7.16083 14.4135 7.09033 14.376 7.02133 14.3407C6.96877 14.3158 6.917 14.2893 6.86608 14.2612L6.88108 14.2687C6.79633 14.2237 6.71158 14.175 6.62608 14.1292C6.60058 14.1112 6.57133 14.0962 6.54208 14.0797C6.41499 14.0059 6.28946 13.9294 6.16558 13.8502L6.21283 13.8787C6.18108 13.8591 6.15006 13.8384 6.11983 13.8165L6.12433 13.8195C6.04372 13.77 5.96468 13.718 5.88733 13.6635C5.86182 13.647 5.83857 13.629 5.81233 13.611C5.73152 13.5558 5.652 13.4988 5.57383 13.44L5.59183 13.4527C5.56033 13.4272 5.52658 13.4032 5.49283 13.3785C5.42683 13.3267 5.36007 13.2772 5.29408 13.2232L5.20557 13.1527C5.11126 13.0777 5.01873 13.0004 4.92808 12.921L4.92733 12.9202L4.66708 12.684L4.59208 12.6135C4.53058 12.5512 4.46758 12.492 4.40458 12.4305L4.33183 12.3555C4.25418 12.2786 4.1784 12.1998 4.10458 12.1192L4.10008 12.114L4.08733 12.1035C4.00791 12.0163 3.92966 11.928 3.85258 11.8387C3.83233 11.8155 3.81358 11.7907 3.79258 11.766L3.62232 11.5597C3.54558 11.4633 3.47057 11.3656 3.39733 11.2665L3.36732 11.2245C1.61382 8.8425 0.979325 5.55525 2.38258 2.85825L1.14358 4.425C-0.450175 6.70425 -0.252925 9.66825 0.965825 12.0885C0.993575 12.1477 1.02433 12.2032 1.05433 12.2595Z" fill="#1266A9"/>
<path d="M6.42223 8.976L6.41398 8.964L6.40723 8.955L6.42223 8.976Z" fill="black"/>
<path d="M7.26028 9.96L7.32778 10.0275C7.41328 10.11 7.50103 10.1902 7.59028 10.2705L7.60153 10.2802C7.69153 10.3597 7.79278 10.443 7.89703 10.524L7.91278 10.536C7.93828 10.5532 7.96003 10.5735 7.98478 10.5907C8.08978 10.6717 8.19553 10.749 8.30578 10.8262L8.31703 10.833C8.36353 10.8667 8.41303 10.8975 8.46553 10.9305C8.48653 10.944 8.51053 10.962 8.53303 10.9755C8.61253 11.0265 8.69053 11.0737 8.77078 11.1225C8.78353 11.1277 8.79478 11.1345 8.80678 11.1397C8.87428 11.181 8.94778 11.2207 9.01828 11.2567C9.04303 11.2717 9.06703 11.283 9.09253 11.2972C9.14278 11.322 9.19228 11.3482 9.24028 11.3737L9.26428 11.3842C9.36553 11.4337 9.46903 11.4802 9.57028 11.526C9.59578 11.5357 9.61753 11.544 9.63928 11.5545C9.72253 11.5905 9.80728 11.625 9.89053 11.6565C9.92803 11.6692 9.96328 11.6842 9.99853 11.6955C10.075 11.724 10.1553 11.7502 10.231 11.7765L10.336 11.8102C10.4455 11.844 10.5565 11.8882 10.6728 11.9062C16.6225 12.8857 17.9995 8.328 17.9995 8.328C16.7598 10.1032 14.3605 10.9492 11.8038 10.2885C11.6762 10.2563 11.5496 10.22 11.4243 10.1797L11.467 10.1917C11.431 10.182 11.3995 10.1707 11.365 10.1602C11.287 10.1332 11.2068 10.107 11.131 10.0792L11.023 10.0387C10.939 10.005 10.8535 9.9735 10.7718 9.9375C10.7463 9.92625 10.723 9.91875 10.7035 9.9075C10.5985 9.86025 10.4928 9.81375 10.39 9.76425L10.2355 9.684L10.1463 9.639C10.0773 9.603 10.0135 9.5655 9.94753 9.52725C9.9307 9.51934 9.91441 9.51032 9.89878 9.50025L9.90103 9.501C9.82153 9.4515 9.73903 9.4035 9.66253 9.35325C9.63703 9.339 9.61378 9.32175 9.58978 9.30675L9.43378 9.2055C9.32578 9.1305 9.22003 9.05025 9.11278 8.97225C9.08878 8.9505 9.06553 8.9325 9.04228 8.913C7.91803 8.03325 7.03153 6.831 6.61078 5.46975C6.16753 4.0545 6.26503 2.4675 7.03078 1.17975L6.08953 2.50575C4.93378 4.1565 4.99903 6.363 5.89903 8.109C6.06328 8.4315 6.22978 8.70375 6.41353 8.96325C6.58453 9.20775 6.77353 9.49425 7.00153 9.69075C7.08253 9.783 7.16953 9.87075 7.26028 9.96Z" fill="#1266A9"/>
<path d="M1.82661 13.494L1.82361 13.4895L1.81836 13.4828L1.82661 13.494ZM4.94511 12.936L4.95261 12.9413L4.95411 12.9435L4.94511 12.936Z" fill="black"/>
<path d="M10.249 1.07025C9.56727 2.0655 9.50201 3.3015 9.97151 4.39875C10.4703 5.56425 11.4895 6.47925 12.6775 6.91275C12.7263 6.9315 12.7735 6.94725 12.8238 6.96525L12.8898 6.9855C12.9588 7.00725 13.0285 7.03275 13.0998 7.0485C16.3855 7.67925 17.275 5.37 17.5143 5.03025C16.732 6.14775 15.4203 6.41625 13.8108 6.027C13.6708 5.99287 13.5331 5.9503 13.3983 5.8995L13.423 5.90775C13.2553 5.8497 13.091 5.78209 12.931 5.70525L12.9595 5.718C12.652 5.568 12.388 5.406 12.1428 5.22C10.7043 4.1325 9.81476 2.06175 10.7538 0.375L10.249 1.07025Z" fill="#1266A9"/>
</g>
<defs>
<clipPath id="clip0_330_1020">
<rect width="18" height="18" fill="white"/>
</clipPath>
</defs>
</svg>
