<svg width="18" height="20" viewBox="0 0 18 20" fill="none" xmlns="http://www.w3.org/2000/svg">
<g clip-path="url(#clip0_330_1032)">
<mask id="mask0_330_1032" style="mask-type:luminance" maskUnits="userSpaceOnUse" x="0" y="0" width="18" height="20">
<path d="M18 0.787872H0V19.2121H18V0.787872Z" fill="white"/>
</mask>
<g mask="url(#mask0_330_1032)">
<path fill-rule="evenodd" clip-rule="evenodd" d="M16.0617 15.1687C15.1132 15.141 14.3773 15.243 13.7605 15.5151C13.583 15.59 13.2979 15.59 13.2745 15.8244C13.3694 15.9227 13.3809 16.0838 13.4641 16.2201C13.6063 16.4676 13.8557 16.8009 14.0809 16.9738L14.8399 17.5428C15.3025 17.8393 15.8243 18.0125 16.2749 18.3093C16.536 18.4824 16.7968 18.705 17.0579 18.8907C17.1908 18.9896 17.2713 19.1506 17.4375 19.2121V19.1747C17.3545 19.0638 17.3306 18.9031 17.2479 18.779L16.8917 18.4207C16.548 17.9385 16.1207 17.5178 15.6581 17.172C15.2785 16.8999 14.4485 16.5291 14.2944 16.0719L14.271 16.0441C14.5315 16.0164 14.8399 15.9203 15.0892 15.846C15.4928 15.7352 15.8602 15.7595 16.2749 15.6484L16.8447 15.4752V15.3644C16.6312 15.1418 16.477 14.845 16.2518 14.635C15.647 14.091 14.9824 13.5593 14.2944 13.1142C13.9267 12.867 13.4521 12.706 13.0608 12.4962C12.918 12.422 12.6812 12.3848 12.5983 12.2612C12.3842 11.9897 12.2659 11.6308 12.1117 11.3091L11.1392 9.15782C10.9258 8.67568 10.795 8.19348 10.5344 7.74842C9.31258 5.64652 7.9839 4.37317 5.94377 3.12422C5.5051 2.86456 4.98324 2.75289 4.42842 2.6171L3.53888 2.56722C3.3488 2.48076 3.15925 2.24576 2.99309 2.13436C2.31704 1.68932 0.573328 0.724959 0.0748621 1.99581C-0.245487 2.79944 0.549402 3.5906 0.819242 3.99879C1.02129 4.28311 1.28182 4.60456 1.42458 4.92601C1.50433 5.13607 1.53092 5.35887 1.61413 5.58139C1.80368 6.12537 1.9818 6.73141 2.2309 7.23853C2.36383 7.4982 2.5034 7.77059 2.66955 8.00533C2.76446 8.14385 2.93061 8.20316 2.96597 8.42569C2.79982 8.67315 2.78839 9.04365 2.69348 9.35318C2.26626 10.7504 2.43241 12.4813 3.03722 13.5099C3.2273 13.8189 3.67526 14.4992 4.28299 14.2393C4.81682 14.0168 4.69772 13.3121 4.85191 12.6938C4.8878 12.5456 4.86388 12.4466 4.93486 12.3474V12.3752L5.42136 13.4013C5.78903 14.0071 6.42971 14.6378 6.9633 15.0584C7.24776 15.2809 7.47321 15.6645 7.82888 15.8003V15.7629H7.80548C7.73426 15.652 7.62739 15.6022 7.53249 15.5157C7.31897 15.2932 7.08187 15.021 6.91571 14.7738C6.41779 14.0816 5.97909 13.3148 5.58752 12.5236C5.39743 12.1404 5.23128 11.7201 5.07762 11.3368C5.00584 11.1882 5.00584 10.9655 4.88754 10.8917C4.70942 11.1633 4.44889 11.3988 4.31782 11.7325C4.09238 12.264 4.06898 12.9194 3.98604 13.5994C3.93819 13.6119 3.95946 13.5994 3.93819 13.6271C3.55909 13.5285 3.42829 13.12 3.28606 12.7742C2.93035 11.8963 2.8708 10.4869 3.17919 9.47293C3.26213 9.21327 3.61837 8.39713 3.47614 8.14996C3.40436 7.91499 3.16775 7.77917 3.03695 7.59354C2.88276 7.35852 2.71714 7.06201 2.61027 6.80234C2.32581 6.10958 2.18358 5.34335 1.87493 4.65084C1.73217 4.32939 1.48334 3.99546 1.28156 3.69895C1.05611 3.36503 0.807542 3.13004 0.629426 2.73459C0.570139 2.59604 0.487194 2.37601 0.582103 2.22747C0.605498 2.12855 0.65335 2.08892 0.747726 2.06675C0.901918 1.92819 1.3411 2.10388 1.49529 2.17759C1.93395 2.36326 2.30161 2.53618 2.66929 2.79556C2.83544 2.91915 3.01357 3.15415 3.22704 3.21622H3.47641C3.85604 3.30268 4.28273 3.24393 4.63817 3.35478C5.26691 3.56538 5.83611 3.87409 6.34652 4.20829C7.90014 5.23445 9.18152 6.69346 10.0472 8.43703C10.1894 8.7214 10.2486 8.98101 10.3795 9.27781C10.6288 9.88385 10.9372 10.5018 11.1858 11.0957C11.4352 11.6768 11.6723 12.2707 12.028 12.7529C12.2061 13.0125 12.9175 13.1483 13.2376 13.2843C13.475 13.3952 13.8424 13.4949 14.0564 13.6308C14.4595 13.8904 14.8628 14.1872 15.2421 14.4715C15.4317 14.6195 16.0251 14.9288 16.0604 15.1754L16.0617 15.1687ZM3.96557 4.42444C3.80169 4.42293 3.63832 4.4437 3.4796 4.48624V4.51394H3.50299C3.5979 4.71181 3.76406 4.84787 3.88263 5.02107L4.15565 5.61465L4.17905 5.58693C4.34521 5.46334 4.42842 5.26548 4.42842 4.96897C4.35716 4.88251 4.34547 4.79577 4.28618 4.70931C4.21494 4.58572 4.06074 4.52309 3.96557 4.42444Z" fill="#101010"/>
</g>
</g>
<defs>
<clipPath id="clip0_330_1032">
<rect width="18" height="19" fill="white" transform="translate(0 0.5)"/>
</clipPath>
</defs>
</svg>
