<svg width="323" height="286" viewBox="0 0 323 286" fill="none" xmlns="http://www.w3.org/2000/svg">
<path d="M136.961 135.786L161.681 170.191L161.675 170.197L123.98 286L86.0801 262.116L104.779 204.408C105.506 202.512 105.978 200.598 106.227 198.69C107.577 188.448 101.108 179.034 91.0713 176.575C89.1573 176.109 87.1402 175.861 85.0566 175.849L0 175.824L13.0537 135.719L136.961 135.786ZM236.22 23.8838L217.509 81.6035C216.782 83.4993 216.31 85.4134 216.062 87.3213C214.717 97.552 221.192 106.972 231.217 109.425C233.137 109.897 235.148 110.151 237.243 110.151L322.3 110.188L322.306 110.182L309.252 150.287L185.339 150.208L160.619 115.803L198.313 0L236.22 23.8838Z" fill="black"/>
</svg>
