<svg width="18" height="18" viewBox="0 0 18 18" fill="none" xmlns="http://www.w3.org/2000/svg">
<g clip-path="url(#clip0_2009_84)">
<mask id="mask0_2009_84" style="mask-type:luminance" maskUnits="userSpaceOnUse" x="0" y="4" width="18" height="10">
<path d="M0.25293 8.99998C0.25293 11.6174 4.16913 13.7393 8.99982 13.7393C13.8305 13.7393 17.7467 11.6174 17.7467 8.99998C17.7467 6.38259 13.8305 4.26067 8.99982 4.26067C4.16913 4.26067 0.25293 6.38259 0.25293 8.99998Z" fill="white"/>
</mask>
<g mask="url(#mask0_2009_84)">
<path d="M0.25293 8.99998C0.25293 11.6174 4.16913 13.7393 8.99982 13.7393C13.8305 13.7393 17.7467 11.6174 17.7467 8.99998C17.7467 6.38259 13.8305 4.26067 8.99982 4.26067C4.16913 4.26067 0.25293 6.38259 0.25293 8.99998Z" fill="url(#paint0_radial_2009_84)"/>
</g>
<mask id="mask1_2009_84" style="mask-type:luminance" maskUnits="userSpaceOnUse" x="-1" y="3" width="20" height="12">
<path d="M-0.111328 3.72102H18.1114V14.279H-0.111328V3.72102Z" fill="white"/>
</mask>
<g mask="url(#mask1_2009_84)">
<path d="M8.99994 13.3874C13.642 13.3874 17.4052 11.4231 17.4052 8.99998C17.4052 6.5769 13.642 4.61253 8.99994 4.61253C4.35793 4.61253 0.594727 6.5769 0.594727 8.99998C0.594727 11.4231 4.35793 13.3874 8.99994 13.3874Z" fill="#777BB3"/>
</g>
<mask id="mask2_2009_84" style="mask-type:luminance" maskUnits="userSpaceOnUse" x="-1" y="3" width="20" height="12">
<path d="M-0.111328 3.72102H18.1114V14.279H-0.111328V3.72102Z" fill="white"/>
</mask>
<g mask="url(#mask2_2009_84)">
<path d="M5.00502 9.54396C5.38672 9.54396 5.67167 9.47146 5.85197 9.32853C6.03033 9.18708 6.15353 8.94199 6.2181 8.60013C6.2783 8.28059 6.25536 8.05747 6.14995 7.93707C6.04217 7.81409 5.80913 7.75172 5.45733 7.75172H4.84735L4.50918 9.54396H5.00502ZM3.00992 11.7517C2.98161 11.7517 2.95472 11.7386 2.93672 11.7161C2.91868 11.6936 2.91137 11.6639 2.91678 11.6353L3.81299 6.8858C3.82166 6.83989 3.86073 6.80672 3.90616 6.80672H5.8377C6.44474 6.80672 6.89658 6.97649 7.18058 7.31138C7.4661 7.64803 7.55427 8.11861 7.44262 8.71001C7.39719 8.95096 7.31905 9.17473 7.21038 9.37507C7.10158 9.57563 6.95779 9.76121 6.78294 9.92675C6.57363 10.1285 6.33673 10.2748 6.07947 10.3609C5.82628 10.4459 5.50112 10.489 5.11303 10.489H4.33091L4.10756 11.6726C4.09889 11.7185 4.05985 11.7517 4.01442 11.7517H3.00992Z" fill="black"/>
<path d="M4.92577 7.84947H5.45752C5.88212 7.84947 6.02961 7.94543 6.07972 8.00262C6.16286 8.09758 6.17855 8.29779 6.12512 8.58158C6.06507 8.8993 5.95377 9.12456 5.79426 9.25106C5.63095 9.38056 5.36546 9.44619 5.00521 9.44619H4.6245L4.92577 7.84947ZM5.83789 6.70895H3.90631C3.81545 6.70895 3.73734 6.77529 3.72001 6.86715L2.8238 11.6166C2.81298 11.6739 2.8276 11.7332 2.86363 11.7783C2.8997 11.8234 2.95342 11.8494 3.01011 11.8494H4.01457C4.10547 11.8494 4.18358 11.7831 4.20091 11.6912L4.40934 10.5867H5.11322C5.51127 10.5867 5.84637 10.542 6.10911 10.4539C6.37932 10.3634 6.62792 10.2101 6.84795 9.99817C7.02992 9.82572 7.17982 9.63216 7.29339 9.42279C7.407 9.21336 7.48862 8.97982 7.53598 8.72864C7.65351 8.10611 7.55803 7.60761 7.25223 7.24708C6.94941 6.89 6.47353 6.70895 5.83789 6.70895ZM4.39421 9.64171H5.00521C5.41019 9.64171 5.71185 9.56314 5.91005 9.40598C6.10829 9.24878 6.24198 8.98643 6.31146 8.61879C6.37792 8.26582 6.34765 8.01673 6.22063 7.87162C6.09345 7.72652 5.83912 7.65395 5.45752 7.65395H4.7693L4.39421 9.64171ZM5.83789 6.90446C6.41896 6.90446 6.84286 7.06153 7.1093 7.37569C7.37571 7.68986 7.45594 8.12837 7.34964 8.69136C7.30589 8.92328 7.23189 9.13532 7.12771 9.32741C7.02341 9.51964 6.88721 9.69541 6.7189 9.85479C6.51833 10.0481 6.29551 10.1859 6.05033 10.268C5.80514 10.3502 5.49286 10.3912 5.11322 10.3912H4.25283L4.01457 11.6539H3.01011L3.90631 6.90446H5.83789Z" fill="white"/>
<path d="M9.74607 10.489C9.71772 10.489 9.69086 10.4759 9.67286 10.4534C9.6548 10.4309 9.64749 10.4012 9.6529 10.3726L10.0493 8.2711C10.087 8.07125 10.0777 7.9278 10.0232 7.86719C9.98977 7.83014 9.88941 7.768 9.59269 7.768H8.87448L8.37604 10.4098C8.36738 10.4558 8.32831 10.489 8.28288 10.489H7.28632C7.25798 10.489 7.23112 10.4759 7.21308 10.4534C7.19505 10.4309 7.18774 10.4012 7.19315 10.3726L8.08935 5.62308C8.09802 5.57716 8.13709 5.54399 8.18252 5.54399H9.17908C9.20742 5.54399 9.23428 5.55703 9.25232 5.57954C9.27035 5.60209 9.27766 5.63171 9.27225 5.66039L9.05598 6.80671H9.82861C10.4172 6.80671 10.8163 6.91359 11.0488 7.13348C11.2858 7.35781 11.3597 7.71648 11.2686 8.19967L10.8516 10.4098C10.8429 10.4558 10.8039 10.489 10.7584 10.489H9.74607Z" fill="black"/>
<path d="M9.17927 5.44622H8.18271C8.09182 5.44622 8.01371 5.51257 7.99637 5.60443L7.10017 10.3539C7.08935 10.4112 7.10397 10.4705 7.14003 10.5156C7.1761 10.5606 7.22982 10.5867 7.28651 10.5867H8.28306C8.37392 10.5867 8.45207 10.5204 8.4694 10.4285L8.95291 7.86575H9.59288C9.8891 7.86575 9.95126 7.93092 9.95376 7.93372C9.97173 7.95363 9.99536 8.04585 9.95636 8.25245L9.55992 10.3539C9.5491 10.4112 9.56371 10.4705 9.59978 10.5156C9.63585 10.5606 9.68956 10.5867 9.74626 10.5867H10.7586C10.8495 10.5867 10.9276 10.5204 10.945 10.4285L11.3619 8.21833C11.4598 7.69953 11.376 7.31035 11.1132 7.06152C10.8624 6.82426 10.4423 6.70894 9.8288 6.70894H9.17126L9.36561 5.67905C9.37639 5.62173 9.36181 5.56242 9.32574 5.51739C9.28968 5.47232 9.23596 5.44622 9.17927 5.44622ZM9.17927 5.64174L8.94101 6.90446H9.8288C10.3874 6.90446 10.7727 7.00489 10.9848 7.20549C11.1968 7.40622 11.2604 7.73146 11.1756 8.18105L10.7586 10.3912H9.74626L10.1427 8.28976C10.1878 8.05071 10.1712 7.88765 10.0929 7.80071C10.0145 7.71377 9.84784 7.67023 9.59288 7.67023H8.7964L8.28306 10.3912H7.28651L8.18271 5.64174H9.17927Z" fill="white"/>
<path d="M12.8449 9.54396C13.2266 9.54396 13.5115 9.47146 13.6918 9.32853C13.8702 9.18711 13.9934 8.94203 14.058 8.60013C14.1182 8.28059 14.0952 8.05747 13.9898 7.93707C13.882 7.81409 13.649 7.75172 13.2972 7.75172H12.6872L12.349 9.54396H12.8449ZM10.8498 11.7517C10.8215 11.7517 10.7946 11.7386 10.7766 11.7161C10.7586 11.6936 10.7512 11.6639 10.7566 11.6353L11.6528 6.8858C11.6615 6.83989 11.7006 6.80672 11.746 6.80672H13.6775C14.2846 6.80672 14.7364 6.97649 15.0204 7.31138C15.306 7.648 15.3941 8.11857 15.2825 8.71001C15.237 8.95096 15.1589 9.17473 15.0502 9.37507C14.9414 9.57563 14.7976 9.76121 14.6228 9.92675C14.4135 10.1285 14.1766 10.2748 13.9193 10.3609C13.6661 10.4459 13.341 10.489 12.9529 10.489H12.1707L11.9475 11.6726C11.9388 11.7185 11.8997 11.7517 11.8543 11.7517H10.8498Z" fill="black"/>
<path d="M12.7656 7.84947H13.2973C13.7219 7.84947 13.8694 7.94543 13.9195 8.00262C14.0027 8.09758 14.0184 8.29779 13.9649 8.58155C13.9049 8.8993 13.7936 9.12456 13.6341 9.25106C13.4708 9.38056 13.2053 9.44619 12.845 9.44619H12.4643L12.7656 7.84947ZM13.6777 6.70895H11.7462C11.6553 6.70895 11.5772 6.77529 11.5598 6.86715L10.6636 11.6166C10.6528 11.6739 10.6674 11.7332 10.7035 11.7783C10.7395 11.8234 10.7933 11.8494 10.85 11.8494H11.8544C11.9453 11.8494 12.0234 11.7831 12.0408 11.6912L12.2491 10.5867H12.953C13.3511 10.5867 13.6862 10.542 13.9489 10.4539C14.2191 10.3634 14.4678 10.2101 14.6878 9.9981C14.8698 9.82569 15.0196 9.63216 15.1332 9.42279C15.2468 9.21336 15.3284 8.97982 15.3758 8.72864C15.4933 8.10608 15.3978 7.60758 15.092 7.24704C14.7892 6.89 14.3134 6.70895 13.6777 6.70895ZM12.2341 9.64171H12.845C13.25 9.64171 13.5517 9.56314 13.7499 9.40598C13.9481 9.24878 14.0818 8.98643 14.1513 8.61879C14.2178 8.26582 14.1875 8.01673 14.0604 7.87162C13.9333 7.72652 13.6789 7.65395 13.2973 7.65395H12.6091L12.2341 9.64171ZM13.6777 6.90446C14.2588 6.90446 14.6827 7.06153 14.9491 7.37569C15.2156 7.68986 15.2958 8.12837 15.1895 8.69136C15.1457 8.92328 15.0717 9.13532 14.9675 9.32741C14.8632 9.51964 14.727 9.69541 14.5587 9.85479C14.3581 10.0481 14.1353 10.1859 13.8901 10.268C13.645 10.3502 13.3327 10.3912 12.953 10.3912H12.0926L11.8544 11.6539H10.85L11.7462 6.90446H13.6777Z" fill="white"/>
</g>
</g>
<defs>
<radialGradient id="paint0_radial_2009_84" cx="0" cy="0" r="1" gradientUnits="userSpaceOnUse" gradientTransform="translate(5.50461 5.92686) scale(11.4859 11.8307)">
<stop stop-color="#AEB2D5"/>
<stop offset="0.3" stop-color="#AEB2D5"/>
<stop offset="0.75" stop-color="#484C89"/>
<stop offset="1" stop-color="#484C89"/>
</radialGradient>
<clipPath id="clip0_2009_84">
<rect width="18" height="10" fill="white" transform="translate(0 4)"/>
</clipPath>
</defs>
</svg>
