<svg width="18" height="20" viewBox="0 0 18 20" fill="none" xmlns="http://www.w3.org/2000/svg">
<g clip-path="url(#clip0_330_1109)">
<mask id="mask0_330_1109" style="mask-type:luminance" maskUnits="userSpaceOnUse" x="0" y="0" width="18" height="20">
<path d="M18 0.787872H0V19.2121H18V0.787872Z" fill="white"/>
</mask>
<g mask="url(#mask0_330_1109)">
<path d="M12.8465 13.7132C12.9479 12.8498 12.9174 12.7238 13.5452 12.8632L13.705 12.8778C14.1879 12.9001 14.8194 12.7983 15.1968 12.6221C15.9955 12.2429 16.4691 11.6092 15.6816 11.7759C13.8852 12.1551 13.7547 11.5321 13.7547 11.5321C15.6524 8.65002 16.4461 4.99169 15.7605 4.09651C13.8933 1.65337 10.6604 2.80878 10.6064 2.83931L10.5889 2.84249C10.2347 2.76615 9.84306 2.72161 9.38929 2.71525C8.57625 2.70252 7.95964 2.93347 7.49096 3.29677C7.49096 3.29677 1.72455 0.865081 1.99245 6.35516C2.04964 7.52326 3.62722 15.1988 5.51061 12.8765C6.19997 12.0278 6.86507 11.3108 6.86507 11.3108C7.19447 11.5354 7.59041 11.6499 8.00503 11.6085L8.03738 11.5805C8.02781 11.6905 8.0322 11.8013 8.05043 11.9101C7.56555 12.4649 7.70854 12.5622 6.73884 12.7665C5.75801 12.9733 6.33486 13.3416 6.71027 13.4383C7.16651 13.5554 8.22199 13.7208 8.93552 12.699L8.90694 12.8154C9.09713 12.9713 9.08408 13.9352 9.11209 14.6236C9.14004 15.312 9.1842 15.9553 9.32156 16.3338C9.45893 16.7124 9.61991 17.689 10.8941 17.4154C11.9589 17.1819 12.7732 16.8453 12.8478 13.7189" fill="black"/>
<path d="M12.8465 13.7132C12.9479 12.8498 12.9174 12.7238 13.5452 12.8632L13.705 12.8778C14.1879 12.9001 14.8194 12.7983 15.1968 12.6221C15.9955 12.2429 16.4691 11.6092 15.6816 11.7759C13.8852 12.1551 13.7547 11.5321 13.7547 11.5321C15.6524 8.65002 16.4461 4.99169 15.7605 4.09651C13.8933 1.65337 10.6604 2.80878 10.6064 2.83931L10.5889 2.84249C10.2347 2.76615 9.84306 2.72161 9.38929 2.71525C8.57625 2.70252 7.95964 2.93347 7.49096 3.29677C7.49096 3.29677 1.72455 0.865081 1.99245 6.35516C2.04964 7.52326 3.62722 15.1988 5.51061 12.8765C6.19997 12.0278 6.86507 11.3108 6.86507 11.3108C7.19447 11.5354 7.59041 11.6499 8.00503 11.6085L8.03738 11.5805C8.02781 11.6905 8.0322 11.8013 8.05043 11.9101C7.56555 12.4649 7.70854 12.5622 6.73884 12.7665C5.75801 12.9733 6.33486 13.3416 6.71027 13.4383C7.16651 13.5554 8.22199 13.7208 8.93552 12.699L8.90694 12.8154C9.09713 12.9713 9.08408 13.9352 9.11209 14.6236C9.14004 15.312 9.1842 15.9553 9.32156 16.3338C9.45893 16.7124 9.61991 17.689 10.8941 17.4154C11.9589 17.1819 12.7732 16.8453 12.8478 13.7189" stroke="black" stroke-width="5.3725"/>
<path d="M15.6755 11.7812C13.8791 12.1604 13.7486 11.5375 13.7486 11.5375C15.6463 8.65542 16.44 4.99706 15.7551 4.10188C13.8878 1.65875 10.655 2.81478 10.6009 2.84469L10.5835 2.84787C10.1886 2.76677 9.78716 2.72396 9.38447 2.71998C8.57143 2.70726 7.95482 2.93821 7.48614 3.3015C7.48614 3.3015 1.71909 0.869819 1.98761 6.35988C2.0448 7.52797 3.62238 15.2035 5.50577 12.8813C6.19948 12.0275 6.86458 11.3104 6.86458 11.3104C7.19398 11.535 7.58992 11.6495 8.00454 11.6081L8.03689 11.5802C8.02738 11.6901 8.03177 11.8009 8.04994 11.9097C7.56506 12.4645 7.70805 12.5619 6.73836 12.7661C5.75752 12.9729 6.33437 13.3413 6.70978 13.438C7.16602 13.5551 8.2215 13.7205 8.93503 12.6987L8.90646 12.8151C9.09664 12.971 9.22967 13.8286 9.20728 14.6061C9.18495 15.3836 9.16999 15.9168 9.31916 16.3341C9.46839 16.7515 9.61757 17.6893 10.8918 17.4157C11.9566 17.1822 12.5079 16.5759 12.5856 15.5668C12.6403 14.8491 12.7634 14.9547 12.7721 14.3134L12.8715 14.0093C12.9853 13.0359 12.8902 12.7222 13.546 12.8685L13.7057 12.8832C14.1887 12.9054 14.8208 12.8036 15.1913 12.6274C15.99 12.2482 16.463 11.6145 15.6755 11.7812Z" fill="#336791"/>
<path d="M9.01188 12.3329C8.96215 14.1436 9.02431 15.967 9.19711 16.4048C9.36991 16.8425 9.74099 17.709 11.0158 17.4304C12.0806 17.1969 12.4685 16.7445 12.6363 15.7463L13.0298 12.5543M7.48401 3.25575C7.48401 3.25575 1.71322 0.840608 1.98174 6.33069C2.03893 7.49879 3.61651 15.1743 5.49991 12.8521C6.18739 12.004 6.80896 11.3404 6.80896 11.3404M10.6006 2.81484C10.4017 2.87847 13.8105 1.53919 15.7486 4.07331C16.4323 4.96849 15.6398 8.62681 13.7421 11.509" stroke="white" stroke-width="1.79" stroke-linecap="round" stroke-linejoin="round"/>
<path d="M13.7425 11.5074C13.7425 11.5074 13.8668 12.131 15.6694 11.7505C16.457 11.5838 15.9827 12.2175 15.1846 12.5967C14.5294 12.9084 13.06 12.988 13.0357 12.5586C12.9736 11.4483 13.809 11.7855 13.7487 11.5074C13.694 11.2568 13.3198 11.0112 13.0736 10.3979C12.858 9.86343 10.1149 5.75973 13.8345 6.36864C13.9712 6.33997 12.8648 2.74208 9.38392 2.68991C5.90306 2.63773 6.01308 7.07037 6.01308 7.07037" stroke="white" stroke-width="1.79" stroke-linecap="round" stroke-linejoin="bevel"/>
<path d="M8.03827 11.8878C7.55345 12.4426 7.69638 12.5399 6.72674 12.7441C5.74585 12.9509 6.3227 13.3193 6.69811 13.416C7.15435 13.5331 8.20983 13.6985 8.92342 12.6761C9.14094 12.3643 8.92212 11.8681 8.62377 11.7421C8.4796 11.681 8.28689 11.6046 8.0395 11.8884L8.03827 11.8878Z" stroke="white" stroke-width="1.79" stroke-linejoin="round"/>
<path d="M8.00617 11.8787C7.95645 11.5523 8.11063 11.1648 8.27533 10.7105C8.52271 10.0298 9.09337 9.34899 8.63713 7.18771C8.2971 5.57806 6.01402 6.85245 6.01402 7.07066C6.01402 7.28887 6.11718 8.17773 5.97673 9.21162C5.79211 10.5617 6.81586 11.7031 7.99436 11.5867" stroke="white" stroke-width="1.79" stroke-linecap="round" stroke-linejoin="round"/>
<path d="M7.46344 7.03842C7.45286 7.11286 7.59709 7.31202 7.78417 7.33873C7.97126 7.36545 8.13101 7.21022 8.14159 7.13515C8.15216 7.06007 8.00794 6.97865 7.82085 6.95194C7.63376 6.92517 7.47272 6.96466 7.46344 7.03842Z" fill="white" stroke="white" stroke-width="0.5975"/>
<path d="M13.159 6.88663C13.169 6.96107 13.0254 7.16017 12.8383 7.18689C12.6512 7.21366 12.4902 7.05838 12.4809 6.9833C12.4716 6.90822 12.6145 6.82681 12.8016 6.80009C12.9887 6.77338 13.1497 6.81282 13.159 6.88663Z" fill="white" stroke="white" stroke-width="0.2975"/>
<path d="M13.8284 6.37003C13.8594 6.95534 13.7053 7.35302 13.6854 7.97587C13.6568 8.88062 14.1069 9.9164 13.4287 10.9535" stroke="white" stroke-width="1.79" stroke-linecap="round" stroke-linejoin="round"/>
</g>
</g>
<defs>
<clipPath id="clip0_330_1109">
<rect width="18" height="19" fill="white" transform="translate(0 0.5)"/>
</clipPath>
</defs>
</svg>
