<svg width="18" height="22" viewBox="0 0 18 22" fill="none" xmlns="http://www.w3.org/2000/svg">
<path d="M18 11.0019C18 9.78099 16.5067 8.62398 14.2173 7.90648C14.7456 5.51732 14.5108 3.61651 13.4762 3.00795C13.2377 2.8652 12.9588 2.79758 12.6543 2.79758V3.63529C12.8231 3.63529 12.9588 3.6691 13.0726 3.73296C13.5715 4.02597 13.788 5.14166 13.6192 6.57666C13.5789 6.92978 13.5128 7.30167 13.4321 7.68109C12.713 7.50077 11.9278 7.36178 11.1023 7.27162C10.607 6.57666 10.0934 5.94556 9.57603 5.39335C10.7721 4.25512 11.8948 3.63153 12.658 3.63153V2.79382C11.649 2.79382 10.3282 3.53011 8.99266 4.80733C7.65715 3.53762 6.33632 2.80885 5.32735 2.80885V3.64656C6.08683 3.64656 7.21321 4.26639 8.4093 5.39711C7.89564 5.94932 7.38198 6.57666 6.89401 7.27162C6.06482 7.36178 5.27966 7.50077 4.56054 7.68484C4.47615 7.30919 4.41378 6.9448 4.36975 6.59544C4.19731 5.16045 4.41011 4.04475 4.90542 3.74799C5.01549 3.68037 5.15858 3.65032 5.32735 3.65032V2.81261C5.01916 2.81261 4.74032 2.88022 4.49817 3.02297C3.46718 3.63153 3.23604 5.52859 3.76804 7.91023C1.48594 8.63149 0 9.78475 0 11.0019C0 12.2227 1.49327 13.3798 3.78271 14.0973C3.25438 16.4864 3.4892 18.3872 4.52385 18.9958C4.76233 19.1385 5.04117 19.2062 5.34937 19.2062C6.35834 19.2062 7.67917 18.4699 9.01468 17.1927C10.3502 18.4624 11.671 19.1911 12.68 19.1911C12.9882 19.1911 13.267 19.1235 13.5092 18.9808C14.5402 18.3722 14.7713 16.4752 14.2393 14.0935C16.5141 13.376 18 12.219 18 11.0019ZM13.223 8.49626C13.0872 8.98085 12.9185 9.48047 12.7277 9.98009C12.5773 9.67957 12.4195 9.37904 12.247 9.07852C12.0783 8.778 11.8985 8.48499 11.7187 8.19949C12.2397 8.27838 12.7424 8.37605 13.223 8.49626ZM11.5426 12.497C11.2564 13.0041 10.9629 13.4849 10.6584 13.932C10.1117 13.9808 9.55768 14.0071 9 14.0071C8.44598 14.0071 7.89197 13.9808 7.34896 13.9357C7.04444 13.4887 6.74725 13.0116 6.46107 12.5082C6.18223 12.0161 5.92907 11.5165 5.69792 11.0131C5.9254 10.5098 6.18223 10.0064 6.4574 9.51428C6.74358 9.00714 7.0371 8.52631 7.34162 8.07928C7.8883 8.03044 8.44232 8.00415 9 8.00415C9.55402 8.00415 10.108 8.03044 10.651 8.07552C10.9556 8.52255 11.2528 8.99963 11.5389 9.50301C11.8178 9.99512 12.0709 10.4947 12.3021 10.9981C12.0709 11.5015 11.8178 12.0049 11.5426 12.497ZM12.7277 12.0086C12.9258 12.512 13.0946 13.0154 13.234 13.5037C12.7534 13.6239 12.247 13.7254 11.7224 13.8043C11.9022 13.515 12.0819 13.2182 12.2507 12.9139C12.4195 12.6134 12.5773 12.3091 12.7277 12.0086ZM9.00734 16.0169C8.66612 15.6562 8.32491 15.2543 7.98736 14.8148C8.31757 14.8298 8.65512 14.8411 8.99633 14.8411C9.34122 14.8411 9.68243 14.8335 10.0163 14.8148C9.6861 15.2543 9.34488 15.6562 9.00734 16.0169ZM6.27762 13.8043C5.75662 13.7254 5.25397 13.6277 4.77334 13.5075C4.90909 13.0229 5.07786 12.5233 5.26865 12.0236C5.41908 12.3242 5.57684 12.6247 5.74929 12.9252C5.92173 13.2257 6.09784 13.5188 6.27762 13.8043ZM8.98899 5.98688C9.33021 6.34751 9.67142 6.74946 10.009 7.18898C9.67876 7.17395 9.34122 7.16268 9 7.16268C8.65512 7.16268 8.3139 7.1702 7.98003 7.18898C8.31023 6.74946 8.65145 6.34751 8.98899 5.98688ZM6.27395 8.19949C6.09417 8.48874 5.91439 8.78551 5.74562 9.08979C5.57684 9.39031 5.41908 9.69084 5.26865 9.99136C5.07053 9.48798 4.90175 8.98461 4.76233 8.49626C5.24297 8.3798 5.74929 8.27838 6.27395 8.19949ZM2.95353 12.9027C1.65471 12.3354 0.814513 11.5916 0.814513 11.0019C0.814513 10.4121 1.65471 9.66454 2.95353 9.10106C3.26906 8.96207 3.61394 8.8381 3.96983 8.72165C4.17896 9.45793 4.45414 10.2243 4.79535 11.0094C4.45781 11.7907 4.1863 12.5533 3.98084 13.2858C3.61761 13.1694 3.27273 13.0417 2.95353 12.9027ZM4.92744 18.2708C4.42846 17.9778 4.21199 16.8621 4.38076 15.4271C4.42112 15.074 4.48716 14.7021 4.56788 14.3227C5.287 14.503 6.07216 14.642 6.89768 14.7321C7.39299 15.4271 7.90664 16.0582 8.42397 16.6104C7.22788 17.7486 6.10518 18.3722 5.34203 18.3722C5.17693 18.3685 5.03751 18.3346 4.92744 18.2708ZM13.6302 15.4083C13.8027 16.8433 13.5899 17.959 13.0946 18.2558C12.9845 18.3234 12.8414 18.3534 12.6726 18.3534C11.9132 18.3534 10.7868 17.7336 9.59071 16.6029C10.1044 16.0507 10.618 15.4233 11.106 14.7284C11.9352 14.6382 12.7203 14.4992 13.4395 14.3151C13.5238 14.6946 13.5899 15.0589 13.6302 15.4083ZM15.0428 12.9027C14.7273 13.0417 14.3824 13.1656 14.0265 13.2821C13.8174 12.5458 13.5422 11.7795 13.201 10.9944C13.5385 10.213 13.81 9.45042 14.0155 8.71789C14.3787 8.83434 14.7236 8.96207 15.0465 9.10106C16.3453 9.6683 17.1855 10.4121 17.1855 11.0019C17.1818 11.5916 16.3416 12.3392 15.0428 12.9027Z" fill="#101010"/>
<path d="M8.99606 12.7186C9.92209 12.7186 10.6728 11.95 10.6728 11.0019C10.6728 10.0537 9.92209 9.28513 8.99606 9.28513C8.07003 9.28513 7.31934 10.0537 7.31934 11.0019C7.31934 11.95 8.07003 12.7186 8.99606 12.7186Z" fill="#101010"/>
</svg>
