<svg width="18" height="18" viewBox="0 0 18 18" fill="none" xmlns="http://www.w3.org/2000/svg">
<g clip-path="url(#clip0_2009_82)">
<path d="M15.49 10.0427C14.8607 10.0464 14.3158 10.2031 13.8588 10.4365C13.69 10.0901 13.5213 9.7875 13.4932 9.5615C13.4615 9.299 13.4229 9.13854 13.4615 8.82504C13.5002 8.51146 13.6759 8.06667 13.6759 8.03021C13.6724 7.9974 13.6372 7.83698 13.2752 7.83334C12.9131 7.82969 12.6002 7.90625 12.565 8.00469C12.5298 8.10313 12.4595 8.32917 12.4138 8.5625C12.3506 8.90521 11.6896 10.1193 11.3134 10.7573C11.1904 10.5094 11.0849 10.2906 11.0638 10.1156C11.0322 9.85313 10.9935 9.69267 11.0322 9.37917C11.0709 9.06559 11.2466 8.62084 11.2466 8.58438C11.2431 8.55156 11.208 8.39115 10.8459 8.3875C10.4838 8.38386 10.1709 8.46042 10.1357 8.55886C10.1006 8.65729 10.0619 8.89063 9.98457 9.11667C9.91071 9.34271 9.0318 11.3698 8.80328 11.8984C8.68727 12.1682 8.58535 12.3833 8.51149 12.5292C8.43766 12.675 8.50797 12.5401 8.50094 12.5547C8.43766 12.6786 8.4025 12.7479 8.4025 12.7479V12.7516C8.35328 12.8427 8.30055 12.9302 8.27591 12.9302C8.25833 12.9302 8.22317 12.6859 8.28294 12.3506C8.41302 11.6469 8.72942 10.5495 8.72594 10.5094C8.72594 10.4912 8.78567 10.2979 8.522 10.1995C8.26536 10.1011 8.17399 10.2651 8.15286 10.2651C8.13177 10.2651 8.11419 10.3235 8.11419 10.3235C8.11419 10.3235 8.39895 9.08757 7.56927 9.08757C7.04895 9.08757 6.33177 9.67455 5.97669 10.2105C5.75169 10.3381 5.27356 10.6079 4.76731 10.8959C4.57395 11.0053 4.37356 11.122 4.18372 11.2277L4.14508 11.1839C3.13961 10.0719 1.27985 9.28438 1.35719 7.78959C1.38532 7.24636 1.56813 5.81354 4.9291 4.07813C7.68184 2.65625 9.88613 3.04636 10.2693 3.91406C10.8142 5.15365 9.09157 7.45781 6.22988 7.78959C5.14004 7.91719 4.56696 7.47969 4.42285 7.31563C4.27168 7.14427 4.25059 7.13698 4.19434 7.16979C4.10293 7.22084 4.15918 7.37396 4.19434 7.46511C4.27871 7.69479 4.63027 8.10313 5.22793 8.30729C5.75172 8.48594 7.03145 8.58438 8.57832 7.96459C10.3115 7.26823 11.665 5.33594 11.2678 3.72084C10.8635 2.07656 8.23379 1.53698 5.74824 2.45208C4.26813 2.99896 2.665 3.85209 1.51188 4.97136C0.140785 6.29844 -0.0771837 7.45781 0.0142226 7.93906C0.33418 9.65625 2.61579 10.7755 3.52985 11.6031C3.48414 11.6286 3.44196 11.6541 3.40329 11.676C2.94625 11.9093 1.20602 12.8536 0.770082 13.8526C0.277894 14.9828 0.847426 15.7958 1.22711 15.9052C2.40133 16.2443 3.60368 15.6354 4.25407 14.6328C4.90091 13.6302 4.8236 12.3286 4.52477 11.7344L4.51419 11.7125L4.87278 11.4938C5.10485 11.3516 5.33336 11.2203 5.53372 11.1073C5.42125 11.4244 5.34036 11.8 5.29821 12.3468C5.24899 12.9885 5.50211 13.8198 5.8361 14.1479C5.98375 14.29 6.15954 14.2937 6.26852 14.2937C6.65524 14.2937 6.83102 13.9619 7.02438 13.5645C7.26344 13.0797 7.47438 12.5182 7.47438 12.5182C7.47438 12.5182 7.21071 14.0385 7.93141 14.0385C8.19508 14.0385 8.45875 13.6849 8.57828 13.5026V13.5062C8.57828 13.5062 8.58532 13.4953 8.59938 13.4698C8.61413 13.4471 8.6282 13.424 8.64157 13.4005V13.3932C8.74704 13.2036 8.98258 12.7698 9.33414 12.0516C9.78762 11.1255 10.2236 9.96615 10.2236 9.96615C10.2236 9.96615 10.2658 10.2505 10.3959 10.7172C10.4732 10.9943 10.6419 11.2969 10.772 11.5922C10.6665 11.7453 10.6032 11.8329 10.6032 11.8329L10.6068 11.8365C10.5224 11.9532 10.4275 12.0772 10.3291 12.2011C9.97047 12.6459 9.54157 13.1527 9.48532 13.2985C9.41852 13.4698 9.43258 13.5974 9.56266 13.6996C9.65758 13.7725 9.82633 13.787 10.0056 13.7725C10.3291 13.7506 10.5541 13.6667 10.6666 13.6157C10.8423 13.55 11.0427 13.4516 11.2361 13.3058C11.5877 13.036 11.8021 12.6532 11.781 12.1428C11.7705 11.8621 11.6826 11.585 11.5736 11.3225C11.6052 11.2751 11.6369 11.2276 11.6685 11.1766C12.224 10.3344 12.6529 9.40841 12.6529 9.40841C12.6529 9.40841 12.6951 9.69278 12.8252 10.1594C12.8919 10.3964 13.0256 10.6553 13.1451 10.9105C12.6248 11.3517 12.2978 11.8621 12.1853 12.1975C11.9779 12.8173 12.1396 13.098 12.4455 13.1637C12.5825 13.1928 12.7795 13.1272 12.9271 13.0616C13.1099 12.9996 13.3314 12.8938 13.5353 12.7371C13.8869 12.4673 14.2244 12.0918 14.2068 11.585C14.1963 11.3517 14.1365 11.122 14.0556 10.9032C14.4986 10.7137 15.0716 10.6043 15.7994 10.6954C17.3638 10.885 17.6732 11.8985 17.6135 12.3215C17.5537 12.7444 17.2268 12.9777 17.1177 13.0506C17.0088 13.1199 16.9736 13.1455 16.9841 13.1965C16.9982 13.2731 17.0474 13.2694 17.1423 13.2548C17.2724 13.2329 17.965 12.9085 17.9931 12.1283C18.0353 11.1256 17.1177 10.0318 15.49 10.0427ZM3.42438 14.2609C2.90758 14.8479 2.17985 15.0703 1.87047 14.8807C1.53649 14.6802 1.66653 13.8161 2.30289 13.1927C2.68961 12.8135 3.19235 12.4635 3.52282 12.2484C3.59664 12.201 3.70914 12.1318 3.84274 12.0479C3.86383 12.0334 3.87789 12.026 3.87789 12.026C3.9025 12.0115 3.93063 11.9932 3.95875 11.975C4.1943 12.8646 3.9693 13.6448 3.42438 14.2609ZM7.20368 11.5958C7.02438 12.0516 6.64469 13.2219 6.41618 13.1563C6.21927 13.1016 6.09977 12.2156 6.37747 11.3406C6.51809 10.8994 6.81692 10.3745 6.9927 10.1703C7.2775 9.84215 7.58684 9.73278 7.66422 9.86767C7.75563 10.0427 7.31618 11.3115 7.20368 11.5958ZM10.322 13.1417C10.2447 13.1818 10.1744 13.2109 10.1427 13.1891C10.1181 13.1745 10.1743 13.1198 10.1743 13.1198C10.1743 13.1198 10.5646 12.686 10.7193 12.4855C10.8072 12.3688 10.9126 12.2339 11.0251 12.0808V12.1245C11.0252 12.6495 10.54 12.9995 10.322 13.1417ZM12.7267 12.5729C12.6704 12.5292 12.6775 12.3943 12.8673 11.9714C12.9412 11.8036 13.1099 11.5229 13.4017 11.2568C13.4368 11.3661 13.458 11.4718 13.4544 11.5703C13.4509 12.2266 13.0009 12.4708 12.7267 12.5729Z" fill="#101010"/>
</g>
<defs>
<clipPath id="clip0_2009_82">
<rect width="18" height="14" fill="white" transform="translate(0 2)"/>
</clipPath>
</defs>
</svg>
