<svg width="524" height="144" fill="none" xmlns="http://www.w3.org/2000/svg"><path fill-rule="evenodd" clip-rule="evenodd" d="M303.654 68.97c0-39.595 32.151-68.888 72.124-68.888h76.098C491.849.082 524 29.375 524 68.97v6.036c0 39.596-32.151 68.889-72.124 68.889h-76.098c-39.973 0-72.124-29.293-72.124-68.888V68.97Zm72.124-42.027c-25.474 0-43.274 19.686-43.274 42.028v6.036c0 22.342 17.8 41.97 43.274 41.97h76.098c25.475 0 43.275-19.628 43.275-41.97v-6.036c0-22.342-17.8-42.028-43.275-42.028h-76.098Z" fill="#0D0D0D"/><path d="M278.197 0v144h-28.849V25.379L278.197 0Z" fill="#0D0D0D"/><path fill-rule="evenodd" clip-rule="evenodd" d="M72.123 27.012h76.249c24.757-.001 43.275 20.223 43.275 44.871v14.478h28.849V71.883c0-40.51-31.434-71.805-72.125-71.805L72.123.08C31.399.08 0 31.514 0 71.99s31.4 71.91 72.124 71.91h142.768l-23.859-26.905H72.124c-24.723 0-43.274-21.177-43.274-45.005 0-23.828 18.55-44.977 43.273-44.977Z" fill="#0D0D0D"/></svg>