<svg width="214" height="258" fill="none" xmlns="http://www.w3.org/2000/svg"><g clip-path="url(#a)" fill="#0D0D0D"><path d="M31 211.1v-4h8v8h-8v-4Zm18 0v-4h8v8h-8v-4Zm18 0v-4h8v8h-8v-4Zm18 0v-4h8v8h-8v-4Zm18 0v-4h8v8h-8v-4Zm18 0v-4h8v8h-8v-4Zm18 0v-4h8v8h-8v-4Zm18 0v-4h8v8h-8v-4Zm18 0v-4h8v8h-8v-4Zm-108-36v-4h8v8h-8v-4Zm18 0v-4h8v8h-8v-4Zm36 0v-4h8v8h-8v-4Zm18 0v-4h8v8h-8v-4Zm-90-18v-4h8v8h-8v-4Zm18 0v-4h8v8h-8v-4Zm18 0v-4h8v8h-8v-4Zm18 0v-4h8v8h-8v-4Zm18 0v-4h8v8h-8v-4Zm18 0v-4h8v8h-8v-4Zm18 0v-4h8v8h-8v-4Zm-72-18v-4h8v8h-8v-4Zm18 0v-4h8v8h-8v-4Zm18 0v-4h8v8h-8v-4Zm-36-18v-4h8v8h-8v-4Zm18 0v-4h8v8h-8v-4Zm18 0v-4h8v8h-8v-4Zm-72-18v-4h8v8h-8v-4Zm18 0v-4h8v8h-8v-4Zm18 0v-4h8v8h-8v-4Zm18 0v-4h8.1l-.1 8h-8v-4Zm18 0v-4h8v8h-8v-4Zm18 0v-4h8v8h-8v-4Zm18 0v-4h8v8h-8v-4Zm-126-18v-4h8v8h-8v-4Zm72 0v-4h8v8h-8v-4Zm72 0v-4h8v8h-8v-4Zm-90-18v-4h8v8h-8v-4Zm18 0v-4h8v8h-8v-4Zm18 0v-4h8v8h-8v-4ZM103 48v-5h8.1v10.1H103V48Z"/></g><defs><clipPath id="a"><path fill="#fff" d="M0 0h214v258H0z"/></clipPath></defs></svg>