<svg width="214" height="259" fill="none" xmlns="http://www.w3.org/2000/svg"><g clip-path="url(#a)" fill="#0D0D0D"><path d="M103.001 211v-5h8.1v9.9c-.1-9.9 0-9.9 0 0h-8.1V211Zm-18-19v-4h8v8h-8v-4Zm18 0v-4h8v8h-8v-4Zm18 0v-4h8v8h-8v-4Zm-36-18v-4h8v8h-8v-4Zm18 0v-4h8v8h-8v-4Zm18 0v-4h8v8h-8v-4Zm-36-18v-4h8v8h-8v-4Zm18 0v-4h8v8h-8v-4Zm18 0v-4h8v8h-8v-4Zm-90-18v-4h8v8h-8v-4Zm36 0v-4h8v8h-8v-4Zm36 0v-4h8v8h-8v-4Zm36 0v-4h8v8h-8v-4Zm36 0v-4h8v8h-8v-4Zm-126-18v-4h8v8h-8v-4Zm54 0v-4h8v8h-8v-4Zm54 0v-4h8v8h-8v-4ZM11 106v-7.8l10.001-.3v8.1H11Zm192.002 1.1-.001-7.8-10-.3v8.1h10.001ZM49.001 102v-4h8v8h-8v-4Zm54 0v-4h8v8h-8v-4Zm54 0v-4h8v8h-8v-4Zm-108-18v-4h8v8h-8v-4Zm108 0v-4h8v8h-8v-4Zm-126-18v-4h8v8h-8v-4Zm36 0v-4h8v8h-8v-4Zm72 0v-4h8v8h-8v-4Zm36 0v-4h8v8h-8v-4Zm-90-18v-4h8v8h-8v-4Zm18 0v-4h8v8h-8v-4Zm18 0v-4h8v8h-8v-4Z"/></g><defs><clipPath id="a"><path fill="#fff" d="M0 0h214v259H0z"/></clipPath></defs></svg>