<svg width="214" height="258" fill="none" xmlns="http://www.w3.org/2000/svg"><g clip-path="url(#a)" fill="#0D0D0D"><path d="M31 210v-4h8v8h-8v-4Zm18 0v-4h8v8h-8v-4Zm18 0v-4h8v8h-8v-4Zm18 0v-4h8v8h-8v-4Zm18 0v-4h8v8h-8v-4Zm18 0v-4h8v8h-8v-4Zm18 0v-4h8v8h-8v-4Zm18 0v-4h8v8h-8v-4Zm18 0v-4h8v8h-8v-4ZM31 192v-4h8v8h-8v-4Zm0-18v-4h8v8h-8v-4Zm0-18v-4h8v8h-8v-4Zm0-18v-4h8v8h-8v-4Zm0-18v-4h8v8h-8v-4Zm0-18v-4h8v8h-8v-4Zm18 90v-4h8v8h-8v-4Zm18 0v-4h8v8h-8v-4Zm18 0v-4h8v8h-8v-4Zm18 0v-4h8v8h-8v-4Zm18 0v-4h8v8h-8v-4Zm18 0v-4h8v8h-8v-4Zm18 0v-4h8v8h-8v-4Zm18 .1V188h8.1v8.1H175v-4ZM49 174v-4h8v8h-8v-4Zm108 0v-4h8v8h-8v-4Zm18 0v-4h8v8h-8v-4ZM49 156v-4h8v8h-8v-4Zm18 0v-4h8v8h-8v-4Zm72 0v-4h8v8h-8v-4Zm18 0v-4h8v8h-8v-4Zm18-.1v-4h8.1v8.1H175v-4.1ZM49 138v-4h8v8h-8v-4Zm18 4v-8h8v8h-8Zm18-4v-4h8v8h-8v-4Zm18-.1v-4h8.1v8.1H103v-4.1Zm18 .1v-4h8v8h-8v-4Zm18 4v-8h8v8h-8Zm18-4v-4h8v8h-8v-4Zm18 0v-4h8v8h-8v-4Zm0-18v-4h8v8h-8v-4Zm-126 0v-4h8v8h-8v-4Zm18 0v-4h8v8h-8v-4Zm18 0v-4h8v8h-8v-4Zm36 0v-4h8v8h-8v-4Zm18 0v-4h8v8h-8v-4Zm18 0v-4h8v8h-8v-4ZM49 102v-4h8v8h-8v-4Zm18 0v-4h8v8h-8v-4Zm72 0v-4h8v8h-8v-4Zm18 0v-4h8v8h-8v-4Zm18 0v-4h8v8h-8v-4ZM31 84v-4h8v8h-8v-4Zm18 0v-4h8v8h-8v-4Zm18 0v-4h8v8h-8v-4Zm18 0v-4h8v8h-8v-4Zm36 0v-4h8v8h-8v-4Zm18 0v-4h8v8h-8v-4Zm18 0v-4h8v8h-8v-4Zm18 0v-4h8v8h-8v-4ZM31 66v-4h8v8h-8v-4Zm18 0v-4h8v8h-8v-4Zm18 0v-4h8v8h-8v-4Zm18 0v-4h8v8h-8v-4Zm18 0v-4h8v8h-8v-4Zm0-18v-4h8v8h-8v-4Zm-18 0v-4h8v8h-8v-4Zm36 0v-4h8v8h-8v-4Zm0 18v-4h8v8h-8v-4Zm18 0v-4h8v8h-8v-4Zm18 0v-4h8v8h-8v-4Zm18 0v-4h8v8h-8v-4Z"/></g><defs><clipPath id="a"><path fill="#fff" d="M0 0h214v258H0z"/></clipPath></defs></svg>