<svg width="214" height="259" fill="none" xmlns="http://www.w3.org/2000/svg"><g clip-path="url(#a)" fill="#0D0D0D"><path d="M11 211.751v-4.015h10v8.031H11v-4.016Zm20 0v-4.015h8v8.031h-8v-4.016Zm18 0v-4.015h8v8.031h-8v-4.016Zm36 0v-4.015h8v8.031h-8v-4.016Zm18 0v-4.015h8v8.031h-8v-4.016Zm18 0v-4.015h8v8.031h-8v-4.016Zm36 0v-4.015h8v8.031h-8v-4.016Zm18 0v-4.015h8v8.031h-8v-4.016Zm18 0v-4.015h10v8.031h-10v-4.016ZM11 193.682v-4.016h10v8.031H11v-4.015Zm20 0v-4.016h8v8.031h-8v-4.015Zm18 0v-4.016h8v8.031h-8v-4.015Zm36 0v-4.016h8v8.031h-8v-4.015Zm18 0v-4.016h8v8.031h-8v-4.015Zm18 0v-4.016h8v8.031h-8v-4.015Zm36 0v-4.016h8v8.031h-8v-4.015Zm18 0v-4.016h8v8.031h-8v-4.015Zm18 0v-4.016h10v8.031h-10v-4.015Zm-182-18.07v-4.016h10v8.031H11v-4.015Zm20 0v-4.016h8v8.031h-8v-4.015Zm18 0v-4.016h8v8.031h-8v-4.015Zm36 0v-4.016h8v8.031h-8v-4.015Zm18 0v-4.016h8v8.031h-8v-4.015Zm18 0v-4.016h8v8.031h-8v-4.015Zm36 0v-4.016h8v8.031h-8v-4.015Zm18 0v-4.016h8v8.031h-8v-4.015Zm18 0v-4.016h10v7.63l-5 .301-5 .201v-4.116Zm-108-18.07v-4.015h8v8.031h-8v-4.016Zm18 0v-4.015h8v8.031h-8v-4.016Zm18 0v-4.015h8v8.031h-8v-4.016Zm36 0v-4.015h8v8.031h-8v-4.016Zm18 0v-4.015h8v8.031h-8v-4.016Zm18 0v-4.015h10v8.031h-10v-4.016Zm-162-18.07v-4.015h8v8.031h-8v-4.016Zm54 0v-4.015h8v8.031h-8v-4.016Zm18 0v-4.015h8v8.031h-8v-4.016Zm18 0v-4.015h8v8.031h-8v-4.016Zm36 0v-4.015h8v8.031h-8v-4.016Zm18 0v-4.015h8v8.031h-8v-4.016Zm18 0v-4.015h10v8.031h-10v-4.016ZM49 121.403v-4.016h8v8.031h-8v-4.015Zm108 0v-4.016h8v8.031h-8v-4.015Zm18 0v-4.016h8v8.031h-8v-4.015Zm18 0v-4.016h10v8.031h-10v-4.015Zm-126-18.07v-4.016h8v8.031h-8v-4.015Zm54 0v-4.016h8v8.031h-8v-4.015Zm36 0v-4.016h8v8.031h-8v-4.015Zm18 0v-4.016h8v8.031h-8v-4.015Zm18 0v-4.016h10v8.031h-10v-4.015ZM85 85.263v-4.015h8v8.031h-8v-4.016Zm36 0v-4.015h8v8.031h-8v-4.016Zm-18-18.07v-4.015h8v8.031h-8v-4.016Zm18 0v-4.015h8v8.031h-8v-4.016ZM67 48.12V43.1h8v10.04h-8v-5.02Zm36 0V43.1h8v10.04h-8v-5.02Zm-18-.1V43h8v10.039h-8v-5.02Zm36 .1V43.1h8v10.04h-8v-5.02Z"/></g><defs><clipPath id="a"><path fill="#fff" d="M0 0h214v259H0z"/></clipPath></defs></svg>