<svg width="214" height="258" viewBox="0 0 214 258" fill="none" xmlns="http://www.w3.org/2000/svg">
<g clip-path="url(#clip0_457_190)">
<path d="M31 211.1V207.1H35H39V211.1V215.1H35H31V211.1Z" fill="#0D0D0D"/>
<path d="M49 211.1V207.1H53H57V211.1V215.1H53H49V211.1Z" fill="#0D0D0D"/>
<path d="M67 211.1V207.1H71H75V211.1V215.1H71H67V211.1Z" fill="#0D0D0D"/>
<path d="M85 211.1V207.1H89H93V211.1V215.1H89H85V211.1Z" fill="#0D0D0D"/>
<path d="M103 211.1V207.1H107H111V211.1V215.1H107H103V211.1Z" fill="#0D0D0D"/>
<path d="M121 211.1V207.1H125H129V211.1V215.1H125H121V211.1Z" fill="#0D0D0D"/>
<path d="M139 211.1V207.1H143H147V211.1V215.1H143H139V211.1Z" fill="#0D0D0D"/>
<path d="M157 211.1V207.1H161H165V211.1V215.1H161H157V211.1Z" fill="#0D0D0D"/>
<path d="M175 211.1V207.1H179H183V211.1V215.1H179H175V211.1Z" fill="#0D0D0D"/>
<path d="M67 175.1V171.1H71H75V175.1V179.1H71H67V175.1Z" fill="#0D0D0D"/>
<path d="M85 175.1V171.1H89H93V175.1V179.1H89H85V175.1Z" fill="#0D0D0D"/>
<path d="M121 175.1V171.1H125H129V175.1V179.1H125H121V175.1Z" fill="#0D0D0D"/>
<path d="M139 175.1V171.1H143H147V175.1V179.1H143H139V175.1Z" fill="#0D0D0D"/>
<path d="M49 157.1V153.1H53H57V157.1V161.1H53H49V157.1Z" fill="#0D0D0D"/>
<path d="M67 157.1V153.1H71H75V157.1V161.1H71H67V157.1Z" fill="#0D0D0D"/>
<path d="M85 157.1V153.1H89H93V157.1V161.1H89H85V157.1Z" fill="#0D0D0D"/>
<path d="M103 157.1V153.1H107H111V157.1V161.1H107H103V157.1Z" fill="#0D0D0D"/>
<path d="M121 157.1V153.1H125H129V157.1V161.1H125H121V157.1Z" fill="#0D0D0D"/>
<path d="M139 157.1V153.1H143H147V157.1V161.1H143H139V157.1Z" fill="#0D0D0D"/>
<path d="M157 157.1V153.1H161H165V157.1V161.1H161H157V157.1Z" fill="#0D0D0D"/>
<path d="M85 139.1V135.1H89H93V139.1V143.1H89H85V139.1Z" fill="#0D0D0D"/>
<path d="M103 139.1V135.1H107H111V139.1V143.1H107H103V139.1Z" fill="#0D0D0D"/>
<path d="M121 139.1V135.1H125H129V139.1V143.1H125H121V139.1Z" fill="#0D0D0D"/>
<path d="M85 121.1V117.1H89H93V121.1V125.1H89H85V121.1Z" fill="#0D0D0D"/>
<path d="M103 121.1V117.1H107H111V121.1V125.1H107H103V121.1Z" fill="#0D0D0D"/>
<path d="M121 121.1V117.1H125H129V121.1V125.1H125H121V121.1Z" fill="#0D0D0D"/>
<path d="M49 103.1V99.1H53H57V103.1V107.1H53H49V103.1Z" fill="#0D0D0D"/>
<path d="M67 103.1V99.1H71H75V103.1V107.1H71H67V103.1Z" fill="#0D0D0D"/>
<path d="M85 103.1V99.1H89H93V103.1V107.1H89H85V103.1Z" fill="#0D0D0D"/>
<path d="M103 103.1V99.1H107H111.1L111 107.1C103 107.1 106.7 107.1 103 107.1C103 107.1 103 107.1 103 103.1Z" fill="#0D0D0D"/>
<path d="M121 103.1V99.1H125H129V103.1V107.1H125H121V103.1Z" fill="#0D0D0D"/>
<path d="M139 103.1V99.1H143H147V103.1V107.1H143H139V103.1Z" fill="#0D0D0D"/>
<path d="M157 103.1V99.1H161H165V103.1V107.1H161H157V103.1Z" fill="#0D0D0D"/>
<path d="M31 85.1V81.1H35H39V85.1V89.1H35H31V85.1Z" fill="#0D0D0D"/>
<path d="M103 85.1V81.1H107H111V85.1V89.1H107H103V85.1Z" fill="#0D0D0D"/>
<path d="M175 85.1V81.1H179H183V85.1V89.1H179H175V85.1Z" fill="#0D0D0D"/>
<path d="M85 67.1V63.1H89H93V67.1V71.1H89H85V67.1Z" fill="#0D0D0D"/>
<path d="M103 67.1V63.1H107H111V67.1V71.1H107H103V67.1Z" fill="#0D0D0D"/>
<path d="M121 67.1V63.1H125H129V67.1V71.1H125H121V67.1Z" fill="#0D0D0D"/>
<path d="M103 48V43H111.1V53.1H107.1H103V48Z" fill="#0D0D0D"/>
</g>
<defs>
<clipPath id="clip0_457_190">
<rect width="214" height="258" fill="white"/>
</clipPath>
</defs>
</svg>
