<svg width="214" height="259" viewBox="0 0 214 259" fill="none" xmlns="http://www.w3.org/2000/svg">
<g clip-path="url(#clip0_457_6709)">
<path d="M103.001 211V206H107.101H111.101V215.9C111.001 206 111.101 206 111.101 215.9H103.001V211Z" fill="#0D0D0D"/>
<path d="M85.001 192V188H89.001H93.001V192V196H89.001H85.001V192Z" fill="#0D0D0D"/>
<path d="M103.001 192V188H107.001H111.001V192V196H107.001H103.001V192Z" fill="#0D0D0D"/>
<path d="M121.001 192V188H125.001H129.001V192V196H125.001H121.001V192Z" fill="#0D0D0D"/>
<path d="M85.001 174V170H89.001H93.001V174V178H89.001H85.001V174Z" fill="#0D0D0D"/>
<path d="M103.001 174V170H107.001H111.001V174V178H107.001H103.001V174Z" fill="#0D0D0D"/>
<path d="M121.001 174V170H125.001H129.001V174V178H125.001H121.001V174Z" fill="#0D0D0D"/>
<path d="M85.001 156V152H89.001H93.001V156V160H89.001H85.001V156Z" fill="#0D0D0D"/>
<path d="M103.001 156V152H107.001H111.001V156V160H107.001H103.001V156Z" fill="#0D0D0D"/>
<path d="M121.001 156V152H125.001H129.001V156V160H125.001H121.001V156Z" fill="#0D0D0D"/>
<path d="M31.001 138V134H35.001H39.001V138V142H35.001H31.001V138Z" fill="#0D0D0D"/>
<path d="M67.001 138V134H71.001H75.001V138V142H71.001H67.001V138Z" fill="#0D0D0D"/>
<path d="M103.001 138V134H107.001H111.001V138V142H107.001H103.001V138Z" fill="#0D0D0D"/>
<path d="M139.001 138V134H143.001H147.001V138V142H143.001H139.001V138Z" fill="#0D0D0D"/>
<path d="M175.001 138V134H179.001H183.001V138V142H179.001H175.001V138Z" fill="#0D0D0D"/>
<path d="M49.001 120V116H53.001H57.001V120V124H53.001H49.001V120Z" fill="#0D0D0D"/>
<path d="M103.001 120V116H107.001H111.001V120V124H107.001H103.001V120Z" fill="#0D0D0D"/>
<path d="M157.001 120V116H161.001H165.001V120V124H161.001H157.001V120Z" fill="#0D0D0D"/>
<path d="M11 106C11.0006 98.2 11.001 106 11.0005 98.2L21.0012 97.9V101.9V106H11Z" fill="#0D0D0D"/>
<path d="M203.002 107.1C203.001 99.3 203.001 107.1 203.001 99.3L193.001 99V103V107.1H203.002Z" fill="#0D0D0D"/>
<path d="M49.001 102V98H53.001H57.001V102V106H53.001H49.001V102Z" fill="#0D0D0D"/>
<path d="M103.001 102V98H107.001H111.001V102V106H107.001H103.001V102Z" fill="#0D0D0D"/>
<path d="M157.001 102V98H161.001H165.001V102V106H161.001H157.001V102Z" fill="#0D0D0D"/>
<path d="M49.001 84V80H53.001H57.001V84V88H53.001H49.001V84Z" fill="#0D0D0D"/>
<path d="M157.001 84V80H161.001H165.001V84V88H161.001H157.001V84Z" fill="#0D0D0D"/>
<path d="M31.001 66V62H35.001H39.001V66V70H35.001H31.001V66Z" fill="#0D0D0D"/>
<path d="M67.001 66V62H71.001H75.001V66V70H71.001H67.001V66Z" fill="#0D0D0D"/>
<path d="M139.001 66V62H143.001H147.001V66V70H143.001H139.001V66Z" fill="#0D0D0D"/>
<path d="M175.001 66V62H179.001H183.001V66V70H179.001H175.001V66Z" fill="#0D0D0D"/>
<path d="M85.001 48V44H89.001H93.001V48V52H89.001H85.001V48Z" fill="#0D0D0D"/>
<path d="M103.001 48V44H107.001H111.001V48V52H107.001H103.001V48Z" fill="#0D0D0D"/>
<path d="M121.001 48V44H125.001H129.001V48V52H125.001H121.001V48Z" fill="#0D0D0D"/>
</g>
<defs>
<clipPath id="clip0_457_6709">
<rect width="214" height="259" fill="white"/>
</clipPath>
</defs>
</svg>
