<svg width="214" height="258" viewBox="0 0 214 258" fill="none" xmlns="http://www.w3.org/2000/svg">
<g clip-path="url(#clip0_457_1800)">
<path d="M31 210V206H35H39V210V214H35H31V210Z" fill="#0D0D0D"/>
<path d="M49 210V206H53H57V210V214H53H49V210Z" fill="#0D0D0D"/>
<path d="M67 210V206H71H75V210V214H71H67V210Z" fill="#0D0D0D"/>
<path d="M85 210V206H89H93V210V214H89H85V210Z" fill="#0D0D0D"/>
<path d="M103 210V206H107H111V210V214H107H103V210Z" fill="#0D0D0D"/>
<path d="M121 210V206H125H129V210V214H125H121V210Z" fill="#0D0D0D"/>
<path d="M139 210V206H143H147V210V214H143H139V210Z" fill="#0D0D0D"/>
<path d="M157 210V206H161H165V210V214H161H157V210Z" fill="#0D0D0D"/>
<path d="M175 210V206H179H183V210V214H179H175V210Z" fill="#0D0D0D"/>
<path d="M31 192V188H35H39V192V196H35H31V192Z" fill="#0D0D0D"/>
<path d="M31 174V170H35H39V174V178H35H31V174Z" fill="#0D0D0D"/>
<path d="M31 156V152H35H39V156V160H35H31V156Z" fill="#0D0D0D"/>
<path d="M31 138V134H35H39V138V142H35H31V138Z" fill="#0D0D0D"/>
<path d="M31 120V116H35H39V120V124H35H31V120Z" fill="#0D0D0D"/>
<path d="M31 102V98H35H39V102V106H35H31V102Z" fill="#0D0D0D"/>
<path d="M49 192V188H53H57V192V196H53H49V192Z" fill="#0D0D0D"/>
<path d="M67 192V188H71H75V192V196H71H67V192Z" fill="#0D0D0D"/>
<path d="M85 192V188H89H93V192V196H89H85V192Z" fill="#0D0D0D"/>
<path d="M103 192V188H107H111V192V196H107H103V192Z" fill="#0D0D0D"/>
<path d="M121 192V188H125H129V192V196H125H121V192Z" fill="#0D0D0D"/>
<path d="M139 192V188H143H147V192V196H143H139V192Z" fill="#0D0D0D"/>
<path d="M157 192V188H161H165V192V196H161H157V192Z" fill="#0D0D0D"/>
<path d="M175 192.1V188H179.1H183.1V196.1H175V192.1Z" fill="#0D0D0D"/>
<path d="M49 174V170H53H57V174V178H53H49V174Z" fill="#0D0D0D"/>
<path d="M157 174V170H161H165V174V178H161H157V174Z" fill="#0D0D0D"/>
<path d="M175 174V170H179H183V174V178H179H175V174Z" fill="#0D0D0D"/>
<path d="M49 156V152H53H57V156V160H53H49V156Z" fill="#0D0D0D"/>
<path d="M67 156V152H71H75V156V160H71H67V156Z" fill="#0D0D0D"/>
<path d="M139 156V152H143H147V156V160H143H139V156Z" fill="#0D0D0D"/>
<path d="M157 156V152H161H165V156V160H161H157V156Z" fill="#0D0D0D"/>
<path d="M175 155.9V151.9L183.1 151.9V160H179.1H175V155.9Z" fill="#0D0D0D"/>
<path d="M49 138V134H53H57V138V142H53H49V138Z" fill="#0D0D0D"/>
<path d="M66.9996 142C66.9996 142 66.9996 135.9 66.9996 134L74.9995 134V138C74.9995 141.9 74.9996 134 74.9995 142C73.0995 142 66.4996 142 66.9996 142Z" fill="#0D0D0D"/>
<path d="M85 138V134H89H93V138V142H89H85V138Z" fill="#0D0D0D"/>
<path d="M103 137.9V133.9H111.1V142H107.1H103V137.9Z" fill="#0D0D0D"/>
<path d="M121 138V134H125H129V138V142H125H121V138Z" fill="#0D0D0D"/>
<path d="M139 142C139 142 139 135.9 139 134L147 134V138C147 141.9 147 134 147 142C145.1 142 139 142 139 142Z" fill="#0D0D0D"/>
<path d="M157 138V134H161H165V138V142H161H157V138Z" fill="#0D0D0D"/>
<path d="M175 138V134H179H183V138V142H179H175V138Z" fill="#0D0D0D"/>
<path d="M175 120V116H179H183V120V124H179H175V120Z" fill="#0D0D0D"/>
<path d="M49 120V116H53H57V120V124H53H49V120Z" fill="#0D0D0D"/>
<path d="M67 120V116H71H75V120V124H71H67V120Z" fill="#0D0D0D"/>
<path d="M85 120V116H89H93V120V124H89H85V120Z" fill="#0D0D0D"/>
<path d="M121 120V116H125H129V120V124H125H121V120Z" fill="#0D0D0D"/>
<path d="M139 120V116H143H147V120V124H143H139V120Z" fill="#0D0D0D"/>
<path d="M157 120V116H161H165V120V124H161H157V120Z" fill="#0D0D0D"/>
<path d="M49 102V98H53H57V102V106H53H49V102Z" fill="#0D0D0D"/>
<path d="M67 102V98H71H75V102V106H71H67V102Z" fill="#0D0D0D"/>
<path d="M139 102V98H143H147V102V106H143H139V102Z" fill="#0D0D0D"/>
<path d="M157 102V98H161H165V102V106H161H157V102Z" fill="#0D0D0D"/>
<path d="M175 102V98H179H183V102V106H179H175V102Z" fill="#0D0D0D"/>
<path d="M31 84V80H35H39V84V88H35H31V84Z" fill="#0D0D0D"/>
<path d="M49 84V80H53H57V84V88H53H49V84Z" fill="#0D0D0D"/>
<path d="M67 84V80H71H75V84V88H71H67V84Z" fill="#0D0D0D"/>
<path d="M85 84V80H89H93V84V88H89H85V84Z" fill="#0D0D0D"/>
<path d="M121 84V80H125H129V84V88H125H121V84Z" fill="#0D0D0D"/>
<path d="M139 84V80H143H147V84V88H143H139V84Z" fill="#0D0D0D"/>
<path d="M157 84V80H161H165V84V88H161H157V84Z" fill="#0D0D0D"/>
<path d="M175 84V80H179H183V84V88H179H175V84Z" fill="#0D0D0D"/>
<path d="M31 66V62H35H39V66V70H35H31V66Z" fill="#0D0D0D"/>
<path d="M49 66V62H53H57V66V70H53H49V66Z" fill="#0D0D0D"/>
<path d="M67 66V62H71H75V66V70H71H67V66Z" fill="#0D0D0D"/>
<path d="M85 66V62H89H93V66V70H89H85V66Z" fill="#0D0D0D"/>
<path d="M103 66V62H107H111V66V70H107H103V66Z" fill="#0D0D0D"/>
<path d="M103 48V44H107H111V48V52H107H103V48Z" fill="#0D0D0D"/>
<path d="M85 48V44H89H93V48V52H89H85V48Z" fill="#0D0D0D"/>
<path d="M121 48V44H125H129V48V52H125H121V48Z" fill="#0D0D0D"/>
<path d="M121 66V62H125H129V66V70H125H121V66Z" fill="#0D0D0D"/>
<path d="M139 66V62H143H147V66V70H143H139V66Z" fill="#0D0D0D"/>
<path d="M157 66V62H161H165V66V70H161H157V66Z" fill="#0D0D0D"/>
<path d="M175 66V62H179H183V66V70H179H175V66Z" fill="#0D0D0D"/>
</g>
<defs>
<clipPath id="clip0_457_1800">
<rect width="214" height="258" fill="white"/>
</clipPath>
</defs>
</svg>
