<svg width="214" height="259" viewBox="0 0 214 259" fill="none" xmlns="http://www.w3.org/2000/svg">
<g clip-path="url(#clip0_457_4591)">
<path d="M11 211.751V207.736H16H21V211.751V215.767H16H11V211.751Z" fill="#0D0D0D"/>
<path d="M31 211.751V207.736H35H39V211.751V215.767H35H31V211.751Z" fill="#0D0D0D"/>
<path d="M49 211.751V207.736H53H57V211.751V215.767H53H49V211.751Z" fill="#0D0D0D"/>
<path d="M85 211.751V207.736H89H93V211.751V215.767H89H85V211.751Z" fill="#0D0D0D"/>
<path d="M103 211.751V207.736H107H111V211.751V215.767H107H103V211.751Z" fill="#0D0D0D"/>
<path d="M121 211.751V207.736H125H129V211.751V215.767H125H121V211.751Z" fill="#0D0D0D"/>
<path d="M157 211.751V207.736H161H165V211.751V215.767H161H157V211.751Z" fill="#0D0D0D"/>
<path d="M175 211.751V207.736H179H183V211.751V215.767H179H175V211.751Z" fill="#0D0D0D"/>
<path d="M193 211.751V207.736H198H203V211.751V215.767H198H193V211.751Z" fill="#0D0D0D"/>
<path d="M11 193.682V189.666H16H21V193.682V197.697H16H11V193.682Z" fill="#0D0D0D"/>
<path d="M31 193.682V189.666H35H39V193.682V197.697H35H31V193.682Z" fill="#0D0D0D"/>
<path d="M49 193.682V189.666H53H57V193.682V197.697H53H49V193.682Z" fill="#0D0D0D"/>
<path d="M85 193.682V189.666H89H93V193.682V197.697H89H85V193.682Z" fill="#0D0D0D"/>
<path d="M103 193.682V189.666H107H111V193.682V197.697H107H103V193.682Z" fill="#0D0D0D"/>
<path d="M121 193.682V189.666H125H129V193.682V197.697H125H121V193.682Z" fill="#0D0D0D"/>
<path d="M157 193.682V189.666H161H165V193.682V197.697H161H157V193.682Z" fill="#0D0D0D"/>
<path d="M175 193.682V189.666H179H183V193.682V197.697H179H175V193.682Z" fill="#0D0D0D"/>
<path d="M193 193.682V189.666H198H203V193.682V197.697H198H193V193.682Z" fill="#0D0D0D"/>
<path d="M11 175.612V171.596H16H21V175.612V179.627H16H11V175.612Z" fill="#0D0D0D"/>
<path d="M31 175.612V171.596H35H39V175.612V179.627H35H31V175.612Z" fill="#0D0D0D"/>
<path d="M49 175.612V171.596H53H57V175.612V179.627H53H49V175.612Z" fill="#0D0D0D"/>
<path d="M85 175.612V171.596H89H93V175.612V179.627H89H85V175.612Z" fill="#0D0D0D"/>
<path d="M103 175.612V171.596H107H111V175.612V179.627H107H103V175.612Z" fill="#0D0D0D"/>
<path d="M121 175.612V171.596H125H129V175.612V179.627H125H121V175.612Z" fill="#0D0D0D"/>
<path d="M157 175.612V171.596H161H165V175.612V179.627H161H157V175.612Z" fill="#0D0D0D"/>
<path d="M175 175.612V171.596H179H183V175.612V179.627H179H175V175.612Z" fill="#0D0D0D"/>
<path d="M193 175.612V171.596H198H203V175.411V179.226L198 179.527L193 179.728V175.612Z" fill="#0D0D0D"/>
<path d="M85 157.542V153.527H89H93V157.542V161.558H89H85V157.542Z" fill="#0D0D0D"/>
<path d="M103 157.542V153.527H107H111V157.542V161.558H107H103V157.542Z" fill="#0D0D0D"/>
<path d="M121 157.542V153.527H125H129V157.542V161.558H125H121V157.542Z" fill="#0D0D0D"/>
<path d="M157 157.542V153.527H161H165V157.542V161.558H161H157V157.542Z" fill="#0D0D0D"/>
<path d="M175 157.542V153.527H179H183V157.542V161.558H179H175V157.542Z" fill="#0D0D0D"/>
<path d="M193 157.542V153.527H198H203V157.542V161.558H198H193V157.542Z" fill="#0D0D0D"/>
<path d="M31 139.472V135.457H35H39V139.472V143.488H35H31V139.472Z" fill="#0D0D0D"/>
<path d="M85 139.472V135.457H89H93V139.472V143.488H89H85V139.472Z" fill="#0D0D0D"/>
<path d="M103 139.472V135.457H107H111V139.472V143.488H107H103V139.472Z" fill="#0D0D0D"/>
<path d="M121 139.472V135.457H125H129V139.472V143.488H125H121V139.472Z" fill="#0D0D0D"/>
<path d="M157 139.472V135.457H161H165V139.472V143.488H161H157V139.472Z" fill="#0D0D0D"/>
<path d="M175 139.472V135.457H179H183V139.472V143.488H179H175V139.472Z" fill="#0D0D0D"/>
<path d="M193 139.472V135.457H198H203V139.472V143.488H198H193V139.472Z" fill="#0D0D0D"/>
<path d="M49 121.403V117.387H53H57V121.403V125.418H53H49V121.403Z" fill="#0D0D0D"/>
<path d="M157 121.403V117.387H161H165V121.403V125.418H161H157V121.403Z" fill="#0D0D0D"/>
<path d="M175 121.403V117.387H179H183V121.403V125.418H179H175V121.403Z" fill="#0D0D0D"/>
<path d="M193 121.403V117.387H198H203V121.403V125.418H198H193V121.403Z" fill="#0D0D0D"/>
<path d="M67 103.333V99.3174H71H75V103.333V107.348H71H67V103.333Z" fill="#0D0D0D"/>
<path d="M121 103.333V99.3174H125H129V103.333V107.348H125H121V103.333Z" fill="#0D0D0D"/>
<path d="M157 103.333V99.3174H161H165V103.333V107.348H161H157V103.333Z" fill="#0D0D0D"/>
<path d="M175 103.333V99.3174H179H183V103.333V107.348H179H175V103.333Z" fill="#0D0D0D"/>
<path d="M193 103.333V99.3174H198H203V103.333V107.348H198H193V103.333Z" fill="#0D0D0D"/>
<path d="M85 85.2632V81.2477H89H93V85.2632V89.2787H89H85V85.2632Z" fill="#0D0D0D"/>
<path d="M121 85.2632V81.2477H125H129V85.2632V89.2787H125H121V85.2632Z" fill="#0D0D0D"/>
<path d="M103 67.1934V63.1779H107H111V67.1934V71.2089H107H103V67.1934Z" fill="#0D0D0D"/>
<path d="M121 67.1934V63.1779H125H129V67.1934V71.2089H125H121V67.1934Z" fill="#0D0D0D"/>
<path d="M67 48.1197V43.1003H71H75V48.1197V53.1391H71H67V48.1197Z" fill="#0D0D0D"/>
<path d="M103 48.1197V43.1003H107H111V48.1197V53.1391H107H103V48.1197Z" fill="#0D0D0D"/>
<path d="M85 48.0194V43H89H93V48.0194V53.0388H89H85V48.0194Z" fill="#0D0D0D"/>
<path d="M121 48.1197V43.1003H125H129V48.1197V53.1391H125H121V48.1197Z" fill="#0D0D0D"/>
</g>
<defs>
<clipPath id="clip0_457_4591">
<rect width="214" height="259" fill="white"/>
</clipPath>
</defs>
</svg>
