<svg width="524" height="144" viewBox="0 0 524 144" fill="none" xmlns="http://www.w3.org/2000/svg">
<path fill-rule="evenodd" clip-rule="evenodd" d="M303.654 68.9707C303.654 29.3752 335.805 0.0817871 375.778 0.0817871H451.876C491.849 0.0817871 524 29.3752 524 68.9707V75.0075C524 114.603 491.849 143.896 451.876 143.896H375.778C335.805 143.896 303.654 114.603 303.654 75.0075V68.9707ZM375.778 26.9433C350.304 26.9433 332.504 46.6294 332.504 68.9707V75.0075C332.504 97.3488 350.304 116.977 375.778 116.977H451.876C477.351 116.977 495.151 97.3488 495.151 75.0075V68.9707C495.151 46.6294 477.351 26.9433 451.876 26.9433H375.778Z" fill="#0D0D0D"/>
<path d="M278.197 0L278.197 144L249.348 144L249.348 25.3788L278.197 0Z" fill="#0D0D0D"/>
<path fill-rule="evenodd" clip-rule="evenodd" d="M72.1233 27.0125L148.372 27.0111C173.129 27.0107 191.647 47.2354 191.647 71.8832V86.3613H220.496V71.8832C220.496 31.3725 189.062 0.0776371 148.371 0.0783386L72.1228 0.0796816C31.3986 0.0803848 0 31.5145 0 71.9899C0 112.466 31.3994 143.9 72.124 143.9H214.892L191.033 116.995H72.124C47.4014 116.995 28.8496 95.8182 28.8496 71.9899C28.8496 48.1618 47.4009 27.0129 72.1233 27.0125Z" fill="#0D0D0D"/>
</svg>
