<svg width="18" height="18" fill="none" xmlns="http://www.w3.org/2000/svg"><g clip-path="url(#a)"><path d="M3.55.818h10.9a3 3 0 0 1 2.113.87 2.97 2.97 0 0 1 .875 2.102v10.42a2.956 2.956 0 0 1-.875 2.102 2.986 2.986 0 0 1-2.114.87H3.551a2.998 2.998 0 0 1-2.114-.87 2.968 2.968 0 0 1-.874-2.102V3.79a2.955 2.955 0 0 1 .874-2.102A2.987 2.987 0 0 1 3.55.818Z" fill="#300"/><path d="M8.628 11.164H6.012l-.534 1.589a.118.118 0 0 1-.048.072.127.127 0 0 1-.086.023H4.023c-.078 0-.099-.041-.078-.122L6.21 6.459c.021-.067.042-.141.07-.223a2.23 2.23 0 0 0 .043-.439.066.066 0 0 1 .013-.048.07.07 0 0 1 .043-.026H8.2c.056 0 .084.02.092.054l2.566 6.962c.021.075 0 .109-.07.109h-1.47a.11.11 0 0 1-.07-.018.102.102 0 0 1-.042-.057l-.577-1.609ZM6.42 9.792h1.786a9.33 9.33 0 0 0-.162-.487c-.063-.175-.126-.378-.19-.58-.063-.204-.133-.413-.203-.623a14.19 14.19 0 0 1-.19-.602 36.515 36.515 0 0 0-.155-.527h-.014a8.036 8.036 0 0 1-.239.872c-.105.325-.21.663-.323 1-.099.345-.204.663-.31.947Zm5.97-2.913a.902.902 0 0 1-.626-.237.86.86 0 0 1-.24-.622.77.77 0 0 1 .254-.602.92.92 0 0 1 .626-.236c.274 0 .485.081.64.236.155.164.239.38.232.602a.825.825 0 0 1-.54.807.856.856 0 0 1-.346.052Zm-.788 5.867V7.541c0-.068.028-.095.092-.095h1.392c.063 0 .091.034.091.095v5.205c0 .074-.028.108-.091.108h-1.378a.1.1 0 0 1-.102-.066.09.09 0 0 1-.004-.042Z" fill="#FF9A00"/></g><defs><clipPath id="a"><path fill="#fff" d="M0 0h18v18H0z"/></clipPath></defs></svg>