<svg width="20" height="20" fill="none" xmlns="http://www.w3.org/2000/svg"><path d="M4.248 1.364h11.504A3.143 3.143 0 0 1 18.906 4.5v10.998a3.143 3.143 0 0 1-3.154 3.137H4.248A3.143 3.143 0 0 1 1.094 15.5V4.501a3.143 3.143 0 0 1 3.154-3.137Z" fill="#001E36"/><path d="M4.656 13.448V6.091c0-.05.023-.078.074-.078.127 0 .245 0 .416-.008.178-.007.364-.007.564-.014.2-.007.416-.007.646-.014.23-.007.453-.007.675-.007.609 0 1.114.071 1.53.221.37.122.712.322.994.587.237.228.423.507.542.815.11.3.17.607.17.93 0 .614-.148 1.122-.445 1.522-.297.4-.713.7-1.195.872-.505.179-1.061.243-1.67.243-.178 0-.297 0-.371-.007-.074-.007-.178-.007-.32-.007v2.295c.008.05-.029.093-.08.1h-1.44c-.06 0-.09-.029-.09-.093Zm1.618-6.056v2.403c.104.007.2.014.29.014h.393c.29 0 .579-.043.854-.129.237-.064.445-.2.608-.379.156-.178.23-.421.23-.736a1.143 1.143 0 0 0-.17-.636 1.069 1.069 0 0 0-.52-.408 2.252 2.252 0 0 0-.876-.143c-.193 0-.363 0-.504.007-.149-.007-.253 0-.305.007Zm8.624 1.967a2.691 2.691 0 0 0-.712-.244 4.056 4.056 0 0 0-.831-.092 1.549 1.549 0 0 0-.446.05.383.383 0 0 0-.23.143.369.369 0 0 0-.06.193c0 .064.03.128.075.185a.834.834 0 0 0 .252.194c.171.085.35.164.527.235.401.13.787.308 1.143.522.245.15.446.35.587.594.119.229.178.479.17.736.008.336-.096.672-.289.951a1.851 1.851 0 0 1-.831.636c-.364.15-.81.229-1.344.229-.341 0-.675-.029-1.009-.093a3.074 3.074 0 0 1-.757-.229c-.052-.028-.09-.078-.082-.136V11.99c0-.021.008-.05.03-.064.022-.014.045-.007.067.007.29.165.594.28.92.35.282.072.579.108.876.108.282 0 .482-.036.616-.1.119-.05.2-.172.2-.3 0-.1-.06-.194-.178-.287-.119-.092-.364-.2-.727-.335a4.606 4.606 0 0 1-1.054-.515 1.877 1.877 0 0 1-.564-.608 1.486 1.486 0 0 1-.17-.73c0-.307.088-.6.252-.864a1.81 1.81 0 0 1 .779-.658c.349-.172.787-.25 1.313-.25.305 0 .617.021.92.064.224.029.439.086.64.165a.124.124 0 0 1 .073.064.324.324 0 0 1 .015.086v1.165a.087.087 0 0 1-.037.072c-.067.014-.104.014-.134 0Z" fill="#31A8FF"/></svg>