<svg width="18" height="18" fill="none" xmlns="http://www.w3.org/2000/svg"><g clip-path="url(#a)"><path d="M3.188 0h11.624C16.575 0 18 1.462 18 3.27v11.46c0 1.808-1.425 3.27-3.188 3.27H3.188C1.425 18 0 16.538 0 14.73V3.27C0 1.461 1.425 0 3.188 0Z" fill="#00005B"/><path d="M7.23 10.77H4.44l-.57 1.815a.132.132 0 0 1-.143.107h-1.41c-.082 0-.105-.046-.082-.138l2.415-7.1c.022-.077.045-.146.075-.239.03-.161.045-.33.045-.5-.008-.038.022-.077.06-.084h1.942c.053 0 .09.023.098.061l2.737 7.847c.023.084 0 .123-.075.123H7.965c-.053.007-.105-.031-.12-.085l-.615-1.846v.038ZM4.875 9.237H6.78a11.133 11.133 0 0 0-.173-.553 23.776 23.776 0 0 1-.202-.662c-.075-.238-.143-.47-.218-.708a16.953 16.953 0 0 1-.202-.684c-.06-.216-.113-.416-.165-.6h-.015a9.64 9.64 0 0 1-.255.992c-.113.37-.225.754-.345 1.139a12.2 12.2 0 0 1-.33 1.076Zm9.15.84h-2.378c.03.238.105.477.233.685.135.207.322.369.547.461.3.13.63.2.96.192a4.32 4.32 0 0 0 .78-.084c.233-.031.458-.092.668-.177.037-.03.06-.015.06.061v1.177c0 .031-.008.062-.015.093a.178.178 0 0 1-.053.054 3.15 3.15 0 0 1-.75.23c-.352.07-.705.1-1.065.093-.57 0-1.05-.093-1.44-.27a2.532 2.532 0 0 1-.945-.73 2.85 2.85 0 0 1-.517-1.008 4.02 4.02 0 0 1-.158-1.123 4 4 0 0 1 .188-1.223c.12-.385.307-.739.562-1.054a2.73 2.73 0 0 1 .908-.73c.352-.178.772-.24 1.252-.24.398-.007.795.07 1.163.24.307.138.577.345.787.614.195.262.353.554.45.877.098.308.143.623.143.939 0 .184-.008.346-.015.492-.015.146-.023.254-.03.323-.008.054-.053.1-.105.1-.045 0-.128.008-.248.016a3.48 3.48 0 0 1-.435.023c-.172 0-.352-.031-.547-.031Zm-2.378-1.123h1.583c.195 0 .337 0 .427-.008a.36.36 0 0 0 .173-.061v-.077c0-.1-.015-.193-.045-.285a.995.995 0 0 0-.975-.708c-.413-.023-.803.2-.998.585-.09.177-.142.362-.165.554Z" fill="#99F"/></g><defs><clipPath id="a"><path fill="#fff" d="M0 0h18v18H0z"/></clipPath></defs></svg>