<svg viewBox="0 0 47 52" fill="none" xmlns="http://www.w3.org/2000/svg"><path d="m46.574 13.759-5.144-1.645v10.017h5.133l.011-8.372Zm-8.249-5.954L33.2 6.16v15.97h5.127c.007-5.08-.004-10.008 0-14.325ZM5.52 43.67V12.314l-4.942 1.58c.011 9.877.026 23.123 0 33.938l4.942-4.164Zm26.633-18.211L.578 52.066h13.206l22.035-18.624v12.15H25.501l7.698 6.474h13.38V25.459H32.152ZM8.624 41.048l5.082-4.279V6.356L8.61 8.03c.011 9.655.041 22.35.015 33.018Zm8.187-6.896 5.1-4.296V.4l-5.118 1.65c.01 9.373.037 21.515.018 32.103ZM30.094 2.103 25.016.4v26.84l5.078-4.278V2.103Z" fill="#fff"/></svg>