<svg width="18" height="18" fill="none" xmlns="http://www.w3.org/2000/svg"><g clip-path="url(#a)"><path d="M14.56 12.3c-.714.707-1.712 1.107-2.792 1.108-1.082.002-2.08-.394-2.794-1.1a3.225 3.225 0 0 1-.763-1.158 2.932 2.932 0 0 1-.175-1.295 3 3 0 0 1 .383-1.22c.209-.367.495-.698.85-.979a4.027 4.027 0 0 1 2.499-.847 4.022 4.022 0 0 1 2.5.84c.352.28.639.61.847.977.214.376.345.79.383 1.219.04.439-.02.88-.175 1.295-.16.42-.415.815-.764 1.16Z" fill="#fff"/><path d="M9.461 9.9c.033-.571.321-1.076.756-1.433a2.562 2.562 0 0 1 1.627-.565 2.57 2.57 0 0 1 1.628.565c.434.358.723.862.756 1.433.034.588-.21 1.134-.636 1.538a2.534 2.534 0 0 1-1.748.67 2.536 2.536 0 0 1-1.748-.67c-.426-.404-.668-.95-.635-1.538Z" fill="#005385"/><path d="M5.664 11.057c.005.223.078.658.188.998a5.232 5.232 0 0 0 1.172 1.97 6.044 6.044 0 0 0 2.05 1.43c.84.36 1.749.545 2.693.543a6.76 6.76 0 0 0 2.691-.553 6.093 6.093 0 0 0 2.05-1.436 5.272 5.272 0 0 0 1.17-1.974 4.876 4.876 0 0 0 .184-2.196 4.995 4.995 0 0 0-.748-1.986 5.637 5.637 0 0 0-1.363-1.46h.001L10.238 2.28l-.014-.012c-.363-.269-.971-.268-1.37.002-.402.274-.447.726-.09 1.012h-.002l2.3 1.818-7.012.007h-.01c-.578 0-1.136.37-1.246.836-.113.476.28.87.884.873l-.001.002 3.554-.007L.89 11.54l-.024.018c-.598.444-.792 1.185-.415 1.653.382.476 1.195.477 1.8.002l3.461-2.75s-.05.371-.047.594ZM14.56 12.3c-.713.707-1.71 1.107-2.792 1.108-1.081.002-2.08-.394-2.793-1.1a3.224 3.224 0 0 1-.763-1.158 2.931 2.931 0 0 1-.175-1.295 3 3 0 0 1 .383-1.22 3.39 3.39 0 0 1 .849-.979 4.027 4.027 0 0 1 2.5-.847 4.023 4.023 0 0 1 2.499.84c.353.28.64.61.848.977.214.376.345.79.383 1.219.04.439-.02.88-.176 1.295a3.25 3.25 0 0 1-.763 1.16Z" fill="#FF7021"/></g><defs><clipPath id="a"><path fill="#fff" transform="translate(0 2)" d="M0 0h18v14H0z"/></clipPath></defs></svg>