<svg width="18" height="18" fill="none" xmlns="http://www.w3.org/2000/svg"><g clip-path="url(#a)"><path d="m15.35 3.84-1.118 12.293-5.03 1.367-5.014-1.365L3.07 3.84h12.28Z" fill="#264DE4"/><path d="m13.274 15.35.956-10.504H9.21v11.609l4.063-1.105Z" fill="#2965F1"/><path d="m5.633 9.406.138 1.507h3.44V9.406H5.633ZM9.21 6.354H5.355l.14 1.508H9.21V6.354Zm0 8.536v-1.569l-.006.002-1.712-.453-.11-1.203H5.84l.215 2.368 3.15.857.006-.002Z" fill="#EBEBEB"/><path d="M5.96.5h1.862v.764H6.739v.763h1.083v.764H5.96V.5Zm2.235 0h1.862v.664H8.974v.133h1.083v1.527H8.195v-.697H9.28v-.133H8.195V.5Zm2.235 0h1.862v.664h-1.084v.133h1.084v1.527H10.43v-.697h1.083v-.133H10.43V.5Z" fill="#000"/><path d="m11.098 10.913-.178 1.956-1.715.454v1.568l3.152-.856.023-.255.361-3.97.038-.404.277-3.052h-3.85v1.508h2.165l-.14 1.544H9.206v1.507h1.893Z" fill="#fff"/></g><defs><clipPath id="a"><path fill="#fff" d="M0 0h18v18H0z"/></clipPath></defs></svg>