<svg xmlns="http://www.w3.org/2000/svg" width="100" height="100" fill="none"><path d="M95.73 30.308 96 94.923H5V30.308h45.5m45.23 0H50.5m45.23 0L50.5 5v25.308" stroke="#0d0d0d" stroke-width="3.231"/><path d="M17.95 61.122V43.571h3.36l7.473 12.386h-1.78l7.346-12.386h3.36l.025 17.551h-3.812l-.025-11.71h.728l-5.893 9.855h-1.805l-6.017-9.854h.852v11.71h-3.811Zm26.026-10.48h8.45V53.8h-8.45v-3.16Zm.3 7.22h9.554v3.26H40.24V43.571h13.264v3.26h-9.227v11.032Zm11.98 3.26V43.571h12.386l-.025 3.31H59.34l.927-.928.025 15.17h-4.036Zm9.929 0 7.823-17.551h4.011l7.848 17.551h-4.262l-6.419-15.495h1.605l-6.444 15.495h-4.162Zm3.911-3.76 1.078-3.085h9.027l1.103 3.084H70.096Zm-47.445 20.12v-3.11h8.675v3.11h-8.675Zm2.307-10.53c1.32 0 2.532.225 3.636.676a8.365 8.365 0 0 1 2.883 1.88 8.676 8.676 0 0 1 1.905 2.884c.452 1.103.678 2.315.678 3.636 0 1.32-.226 2.532-.678 3.635a8.676 8.676 0 0 1-1.905 2.884 8.676 8.676 0 0 1-2.884 1.905c-1.103.435-2.315.652-3.635.652-1.555 0-2.959-.267-4.212-.802a8.13 8.13 0 0 1-3.11-2.332l2.583-2.407c.619.702 1.304 1.228 2.056 1.58.752.334 1.58.501 2.482.501.752 0 1.446-.134 2.081-.401a4.907 4.907 0 0 0 1.655-1.153 4.887 4.887 0 0 0 1.053-1.78c.251-.686.376-1.447.376-2.282 0-.836-.125-1.597-.376-2.282a4.65 4.65 0 0 0-1.053-1.755 4.48 4.48 0 0 0-1.655-1.153 5.037 5.037 0 0 0-2.08-.427c-.903 0-1.73.176-2.483.527-.752.334-1.437.852-2.056 1.554l-2.582-2.407a8.128 8.128 0 0 1 3.109-2.331c1.253-.535 2.657-.803 4.212-.803Zm14.884 17.851V69.634l.928.928h-6.519v-3.31h15.22v3.31h-6.52l.903-.928v15.17h-4.012Zm23.596 0-5.466-8.45 3.285-1.98 6.794 10.43h-4.613Zm-11.408 0V67.252h4.036v17.551H52.03Zm2.858-7.07v-3.385h6.118v3.385h-6.118Zm6.745-1.254-3.736-.451 5.691-8.776h4.288l-6.243 9.227Z" fill="#0d0d0d"/></svg>