<svg width="20" height="20" fill="none" xmlns="http://www.w3.org/2000/svg"><path d="M7.031 18.636c1.639 0 2.969-1.29 2.969-2.878v-2.88H7.031c-1.638 0-2.968 1.29-2.968 2.88 0 1.589 1.33 2.878 2.968 2.878Z" fill="#0ACF83"/><path d="M4.063 10c0-1.59 1.33-2.879 2.968-2.879H10v5.758H7.031c-1.638 0-2.968-1.29-2.968-2.879Z" fill="#A259FF"/><path d="M4.063 4.242c0-1.589 1.33-2.878 2.968-2.878H10V7.12H7.031c-1.638 0-2.968-1.29-2.968-2.879Z" fill="#F24E1E"/><path d="M10 1.364h2.969c1.639 0 2.969 1.29 2.969 2.878 0 1.59-1.33 2.88-2.97 2.88H10V1.363Z" fill="#FF7262"/><path d="M15.938 10c0 1.59-1.33 2.879-2.97 2.879C11.33 12.879 10 11.589 10 10c0-1.59 1.33-2.879 2.969-2.879 1.639 0 2.969 1.29 2.969 2.879Z" fill="#1ABCFE"/></svg>