<svg width="18" height="18" fill="none" xmlns="http://www.w3.org/2000/svg"><g clip-path="url(#a)"><path d="M3.81 0h.81v.802h.744V0h.809v2.426h-.809v-.809h-.738v.809h-.815M7.24.809h-.713V0h2.24v.809H8.05v1.617h-.808M9.122 0h.848l.52.854.52-.854h.848v2.426h-.809V1.223l-.566.872-.566-.872v1.203h-.794M12.259 0h.808v1.624h1.146v.802H12.26" fill="#000"/><path d="M3.783 16.559 2.623 3.537h12.755l-1.16 13.015L8.99 18" fill="#E44D26"/><path d="M9 16.893V4.605h5.214l-.995 11.11" fill="#F16529"/><path d="M4.992 6.198H9v1.596H6.743l.148 1.635H9v1.592H5.428m.07.802h1.604l.112 1.276L9 13.577v1.667l-3.277-.914" fill="#EBEBEB"/><path d="M12.994 6.198h-4v1.596h3.852m-.144 1.635H8.993v1.596h1.969l-.186 2.074-1.783.478v1.66l3.27-.907" fill="#fff"/></g><defs><clipPath id="a"><path fill="#fff" d="M0 0h18v18H0z"/></clipPath></defs></svg>