<svg width="18" height="18" fill="none" xmlns="http://www.w3.org/2000/svg"><g clip-path="url(#a)"><path d="M0 0h18v18H0V0Z" fill="#F0DB4F"/><path d="M16.527 13.707c-.132-.821-.667-1.51-2.253-2.154-.551-.253-1.165-.435-1.348-.852-.066-.243-.074-.38-.033-.527.118-.478.688-.626 1.14-.49.29.098.566.322.732.68.777-.503.775-.5 1.317-.846-.198-.308-.304-.45-.434-.581-.467-.522-1.104-.79-2.122-.77l-.53.068c-.508.129-.993.395-1.277.753-.852.967-.609 2.659.428 3.355 1.021.767 2.522.941 2.714 1.658.186.878-.645 1.162-1.472 1.061-.609-.126-.948-.436-1.314-1-.674.391-.674.391-1.367.79.164.359.337.522.613.833 1.303 1.323 4.566 1.258 5.152-.744.024-.069.18-.527.054-1.234ZM9.786 8.273H8.102c0 1.454-.007 2.898-.007 4.353 0 .925.048 1.774-.102 2.034-.247.512-.885.448-1.176.35-.296-.146-.446-.353-.62-.646-.049-.084-.085-.149-.097-.154-.457.279-.912.56-1.369.838.228.468.563.873.993 1.137.641.385 1.504.503 2.406.296.586-.172 1.093-.526 1.358-1.065.383-.706.301-1.562.298-2.508.008-1.543 0-3.087 0-4.635Z" fill="#323330"/></g><defs><clipPath id="a"><path fill="#fff" d="M0 0h18v18H0z"/></clipPath></defs></svg>