<svg width="18" height="18" fill="none" xmlns="http://www.w3.org/2000/svg"><g clip-path="url(#a)"><path d="M1.054 12.26c.018.039.037.075.058.11.01.022.023.043.035.063l.061.114.118.198c.022.037.043.073.067.109.042.07.09.139.133.21.02.029.038.058.06.087.082.129.157.235.237.338.057.078.114.153.176.23l.063.085.166.2c.02.024.04.051.062.075.074.088.152.174.23.261 0 .002.002.003.004.005.096.122.2.23.315.326l.003.003c.06.061.12.122.183.182l.076.073c.083.078.167.155.254.23l.004.002.043.038c.076.066.154.133.232.194l.094.079.195.149.102.078c.07.053.144.104.215.155.027.018.053.037.08.054l.022.018.21.138.09.06c.11.07.22.136.33.202.031.016.063.033.092.051.08.047.165.094.247.137.045.025.091.047.138.07.056.032.114.062.174.094.017.005.03.01.044.018l.003-.003c.025.011.048.023.072.035.09.045.184.088.281.13a8.483 8.483 0 0 0 .385.161c.025.008.052.02.079.03.1.038.205.077.309.114l.037.014c.115.038.228.076.345.111l.083.025c.12.036.235.079.356.101 7.705 1.397 9.943-4.61 9.943-4.61-1.88 2.438-5.219 3.081-8.38 2.365-.117-.027-.234-.064-.353-.099a8.737 8.737 0 0 1-.497-.156l.071.021-.046-.018c-.102-.034-.2-.072-.3-.11a1.1 1.1 0 0 0-.074-.029l-.009-.002a9.554 9.554 0 0 1-.324-.137c-.023-.007-.042-.018-.066-.027a9.983 9.983 0 0 1-.375-.172l.104.046a1.116 1.116 0 0 1-.08-.04c-.07-.032-.14-.07-.21-.105a2.82 2.82 0 0 1-.155-.08l.015.008c-.085-.045-.17-.094-.255-.14-.025-.018-.055-.033-.084-.05a8.968 8.968 0 0 1-.376-.229l.047.029a1.514 1.514 0 0 1-.093-.063l.004.003a4.589 4.589 0 0 1-.237-.155l-.075-.053a6.432 6.432 0 0 1-.238-.171l.018.013a1.521 1.521 0 0 0-.1-.074c-.065-.052-.132-.102-.198-.156l-.088-.07a7.612 7.612 0 0 1-.278-.232l-.26-.237-.076-.07c-.061-.063-.124-.122-.187-.184l-.073-.075a6.729 6.729 0 0 1-.227-.236l-.005-.005-.013-.01c-.08-.088-.157-.176-.234-.265l-.06-.073-.17-.206a10.3 10.3 0 0 1-.226-.293l-.03-.042C1.614 8.841.98 5.555 2.383 2.857l-1.24 1.567C-.45 6.705-.252 9.668.967 12.088c.028.06.058.115.088.171Z" fill="#1266A9"/><path d="m6.422 8.976-.008-.012-.007-.009.015.021Z" fill="#000"/><path d="m7.26 9.96.068.067c.085.083.173.163.262.244l.012.01c.09.079.19.162.295.243l.016.012c.025.017.047.037.072.055.105.08.21.158.32.235l.012.007c.047.034.096.065.149.098l.067.045.238.146.036.018c.067.041.14.08.211.117.025.015.049.026.075.04.05.025.1.051.147.077l.024.01c.102.05.205.096.306.142.026.01.048.018.07.029.083.036.167.07.25.101.038.013.073.028.109.04.076.028.156.054.232.08l.105.034c.11.034.22.078.337.096 5.95.98 7.327-3.578 7.327-3.578-1.24 1.775-3.64 2.621-6.196 1.96a6.172 6.172 0 0 1-.38-.108l.043.012c-.036-.01-.068-.021-.102-.032l-.234-.08-.108-.041c-.084-.034-.17-.066-.251-.101-.026-.012-.049-.02-.069-.03-.104-.048-.21-.094-.313-.144l-.155-.08-.089-.045a3.766 3.766 0 0 1-.198-.112.42.42 0 0 1-.05-.027l.003.001c-.08-.05-.162-.098-.238-.148-.026-.014-.05-.031-.073-.046l-.156-.101c-.108-.075-.214-.156-.321-.234l-.07-.059C7.917 8.033 7.031 6.831 6.61 5.47c-.443-1.415-.346-3.002.42-4.29l-.94 1.326c-1.156 1.65-1.091 3.857-.191 5.603.164.322.33.595.515.854.17.245.36.531.588.728.08.092.168.18.258.269Z" fill="#1266A9"/><path d="m1.827 13.494-.003-.005-.006-.006.009.011Zm3.118-.558.008.005.001.002-.009-.007Z" fill="#000"/><path d="M10.249 1.07c-.682.996-.747 2.232-.277 3.329.498 1.165 1.518 2.08 2.706 2.514l.146.052.066.02c.069.022.138.048.21.063 3.286.631 4.175-1.678 4.414-2.018-.782 1.118-2.094 1.386-3.703.997a3.562 3.562 0 0 1-.413-.128l.025.009a4.65 4.65 0 0 1-.492-.203l.029.013a4.837 4.837 0 0 1-.817-.498c-1.439-1.087-2.328-3.158-1.39-4.845l-.504.695Z" fill="#1266A9"/></g><defs><clipPath id="a"><path fill="#fff" d="M0 0h18v18H0z"/></clipPath></defs></svg>