<svg width="18" height="20" fill="none" xmlns="http://www.w3.org/2000/svg"><g clip-path="url(#a)"><mask id="b" style="mask-type:luminance" maskUnits="userSpaceOnUse" x="0" y="0" width="18" height="20"><path d="M18 .788H0v18.424h18V.788Z" fill="#fff"/></mask><g mask="url(#b)"><path fill-rule="evenodd" clip-rule="evenodd" d="M16.062 15.169c-.949-.028-1.685.074-2.302.346-.177.075-.462.075-.486.31.095.098.107.259.19.395.142.248.392.58.617.754l.759.569c.463.296.984.47 1.435.766.261.173.522.396.783.582.133.099.213.26.38.321v-.037c-.083-.111-.107-.272-.19-.396l-.356-.358a5.725 5.725 0 0 0-1.234-1.249c-.38-.272-1.21-.643-1.364-1.1l-.023-.028c.26-.028.569-.124.818-.198.404-.11.771-.087 1.186-.198l.57-.173v-.11c-.214-.223-.368-.52-.593-.73a15.883 15.883 0 0 0-1.958-1.52c-.367-.248-.842-.409-1.233-.619-.143-.074-.38-.111-.463-.235-.214-.271-.332-.63-.486-.952l-.973-2.151c-.213-.482-.344-.965-.605-1.41-1.221-2.101-2.55-3.375-4.59-4.624-.439-.26-.96-.371-1.516-.507l-.89-.05c-.19-.086-.379-.321-.545-.433C2.317 1.69.573.725.075 1.996c-.32.803.474 1.595.744 2.003.202.284.463.606.606.927.08.21.106.433.19.655.189.544.367 1.15.616 1.658.133.26.272.532.439.766.094.139.26.198.296.42-.166.248-.178.619-.273.928-.427 1.397-.26 3.128.344 4.157.19.309.638.99 1.246.73.534-.223.415-.928.569-1.546.036-.148.012-.247.083-.347v.028l.486 1.026c.368.606 1.009 1.237 1.542 1.657.285.223.51.607.866.742v-.037h-.024c-.07-.111-.178-.16-.273-.247a5.952 5.952 0 0 1-.616-.742 16.063 16.063 0 0 1-1.328-2.25c-.19-.384-.357-.804-.51-1.187-.072-.149-.072-.371-.19-.445-.179.271-.44.507-.57.84-.226.532-.249 1.187-.332 1.867-.048.013-.027 0-.048.028-.379-.099-.51-.507-.652-.853-.356-.878-.415-2.287-.107-3.301.083-.26.44-1.076.297-1.323-.072-.235-.308-.37-.439-.556a5.059 5.059 0 0 1-.427-.792c-.284-.692-.426-1.459-.735-2.151-.143-.322-.392-.656-.593-.952-.226-.334-.474-.569-.653-.964-.059-.139-.142-.359-.047-.508.023-.098.071-.138.166-.16.154-.139.593.037.747.11.439.186.807.36 1.174.619.166.123.345.358.558.42h.25c.379.087.806.028 1.161.139a7.5 7.5 0 0 1 1.709.853c1.553 1.026 2.835 2.485 3.7 4.229.142.284.202.544.332.84.25.607.558 1.225.807 1.819.25.58.486 1.175.842 1.657.178.26.89.395 1.21.531.237.111.604.21.818.347.404.26.807.556 1.186.84.19.149.783.458.818.704l.002-.006ZM3.966 4.424a1.812 1.812 0 0 0-.486.062v.028h.023c.095.198.261.334.38.507l.273.594.023-.028c.166-.124.25-.322.25-.618-.072-.086-.084-.173-.143-.26-.071-.123-.225-.186-.32-.285Z" fill="#101010"/></g></g><defs><clipPath id="a"><path fill="#fff" transform="translate(0 .5)" d="M0 0h18v19H0z"/></clipPath></defs></svg>