<svg width="323" height="286" fill="none" xmlns="http://www.w3.org/2000/svg"><path d="m136.961 135.786 24.72 34.405-.006.006L123.98 286l-37.9-23.884 18.699-57.708a24.953 24.953 0 0 0 1.448-5.718c1.35-10.242-5.119-19.656-15.156-22.115a26.056 26.056 0 0 0-6.014-.726L0 175.824l13.054-40.105 123.907.067ZM236.22 23.884l-18.711 57.72a24.896 24.896 0 0 0-1.447 5.717c-1.345 10.231 5.13 19.651 15.155 22.104 1.92.472 3.931.726 6.026.726l85.057.037.006-.006-13.054 40.105-123.913-.079-24.72-34.405L198.313 0l37.907 23.884Z" fill="#000"/></svg>