<svg width="18" height="18" fill="none" xmlns="http://www.w3.org/2000/svg"><g clip-path="url(#a)"><mask id="b" style="mask-type:luminance" maskUnits="userSpaceOnUse" x="0" y="4" width="18" height="10"><path d="M.253 9c0 2.617 3.916 4.74 8.747 4.74 4.83 0 8.747-2.123 8.747-4.74S13.83 4.26 9 4.26.253 6.384.253 9Z" fill="#fff"/></mask><g mask="url(#b)"><path d="M.253 9c0 2.617 3.916 4.74 8.747 4.74 4.83 0 8.747-2.123 8.747-4.74S13.83 4.26 9 4.26.253 6.384.253 9Z" fill="url(#c)"/></g><mask id="d" style="mask-type:luminance" maskUnits="userSpaceOnUse" x="-1" y="3" width="20" height="12"><path d="M-.111 3.721H18.11v10.558H-.11V3.721Z" fill="#fff"/></mask><g mask="url(#d)"><path d="M9 13.387c4.642 0 8.405-1.964 8.405-4.387 0-2.423-3.763-4.387-8.405-4.387C4.358 4.613.595 6.577.595 9c0 2.423 3.763 4.387 8.405 4.387Z" fill="#777BB3"/></g><mask id="e" style="mask-type:luminance" maskUnits="userSpaceOnUse" x="-1" y="3" width="20" height="12"><path d="M-.111 3.721H18.11v10.558H-.11V3.721Z" fill="#fff"/></mask><g mask="url(#e)"><path d="M5.005 9.544c.382 0 .667-.073.847-.215.178-.142.302-.387.366-.729.06-.32.037-.543-.068-.663-.108-.123-.34-.185-.693-.185h-.61L4.51 9.544h.496ZM3.01 11.752a.094.094 0 0 1-.073-.036.1.1 0 0 1-.02-.08l.896-4.75a.096.096 0 0 1 .093-.08h1.932c.607 0 1.059.17 1.343.505.285.337.373.808.262 1.399a2.28 2.28 0 0 1-.233.665c-.108.2-.252.386-.427.552-.21.202-.446.348-.704.434-.253.085-.578.128-.966.128h-.782l-.223 1.184a.096.096 0 0 1-.094.079H3.01Z" fill="#000"/><path d="M4.926 7.85h.532c.424 0 .572.095.622.153.083.095.099.295.045.579-.06.317-.171.543-.33.67-.164.129-.43.194-.79.194h-.38l.3-1.597Zm.912-1.141H3.906a.191.191 0 0 0-.186.158l-.896 4.75a.2.2 0 0 0 .04.161c.036.045.09.071.146.071h1.005c.09 0 .169-.066.186-.158l.208-1.104h.704c.398 0 .733-.045.996-.133.27-.09.519-.244.739-.456a2.296 2.296 0 0 0 .688-1.269c.118-.623.022-1.121-.284-1.482-.303-.357-.778-.538-1.414-.538ZM4.394 9.642h.611c.405 0 .707-.079.905-.236.198-.157.332-.42.401-.787.067-.353.037-.602-.09-.747-.128-.145-.382-.218-.763-.218h-.689l-.375 1.988Zm1.444-2.738c.581 0 1.005.158 1.271.472.267.314.347.752.24 1.315a2.168 2.168 0 0 1-.221.636c-.105.193-.24.368-.41.528-.2.193-.422.33-.668.413-.245.082-.557.123-.937.123h-.86l-.238 1.263H3.01l.896-4.75h1.932Z" fill="#fff"/><path d="M9.746 10.489a.094.094 0 0 1-.073-.036.1.1 0 0 1-.02-.08l.396-2.102c.038-.2.029-.343-.026-.404-.033-.037-.134-.099-.43-.099h-.719l-.498 2.642a.096.096 0 0 1-.093.079h-.997a.094.094 0 0 1-.073-.036.1.1 0 0 1-.02-.08l.896-4.75a.096.096 0 0 1 .094-.079h.996c.028 0 .055.013.073.036a.1.1 0 0 1 .02.08l-.216 1.147h.773c.588 0 .987.107 1.22.326.237.225.31.583.22 1.067l-.417 2.21a.096.096 0 0 1-.094.079H9.746Z" fill="#000"/><path d="M9.18 5.446h-.997a.191.191 0 0 0-.187.158l-.896 4.75a.2.2 0 0 0 .04.162c.036.045.09.07.147.07h.996a.19.19 0 0 0 .186-.158l.484-2.562h.64c.296 0 .358.065.36.068.019.02.042.112.003.318l-.396 2.102a.2.2 0 0 0 .04.162c.036.045.09.07.146.07h1.013c.09 0 .169-.066.186-.158l.417-2.21c.098-.518.014-.908-.249-1.156-.25-.238-.67-.353-1.284-.353H9.17l.195-1.03a.2.2 0 0 0-.04-.162.188.188 0 0 0-.147-.07Zm0 .196-.24 1.262h.888c.558 0 .944.1 1.156.301.212.201.275.526.19.976l-.416 2.21H9.746l.397-2.101c.045-.24.028-.402-.05-.49-.079-.086-.245-.13-.5-.13h-.797l-.513 2.721h-.996l.896-4.75h.996Z" fill="#fff"/><path d="M12.845 9.544c.382 0 .666-.073.847-.215.178-.142.301-.387.366-.729.06-.32.037-.543-.068-.663-.108-.123-.341-.185-.693-.185h-.61l-.338 1.792h.496Zm-1.995 2.208a.094.094 0 0 1-.073-.036.1.1 0 0 1-.02-.08l.896-4.75a.096.096 0 0 1 .093-.08h1.931c.608 0 1.06.17 1.343.505.286.337.374.808.263 1.399a2.28 2.28 0 0 1-.233.665c-.109.2-.252.386-.427.552-.21.202-.446.348-.704.434-.253.085-.578.128-.966.128h-.782l-.223 1.184a.096.096 0 0 1-.094.079H10.85Z" fill="#000"/><path d="M12.766 7.85h.531c.425 0 .572.095.622.153.084.095.1.295.046.579-.06.317-.171.543-.33.67-.164.129-.43.194-.79.194h-.38l.3-1.597Zm.912-1.141h-1.932a.191.191 0 0 0-.186.158l-.896 4.75a.2.2 0 0 0 .04.161c.035.045.09.071.146.071h1.004c.091 0 .17-.066.187-.158l.208-1.104h.704c.398 0 .733-.045.996-.133.27-.09.519-.244.739-.456a2.296 2.296 0 0 0 .688-1.269c.117-.623.022-1.121-.284-1.482-.303-.357-.779-.538-1.414-.538Zm-1.444 2.933h.611c.405 0 .707-.079.905-.236.198-.157.332-.42.401-.787.067-.353.037-.602-.09-.747-.128-.145-.382-.218-.764-.218h-.688l-.375 1.988Zm1.444-2.738c.58 0 1.005.158 1.271.472.267.314.347.752.24 1.315a2.169 2.169 0 0 1-.222.636c-.104.193-.24.368-.408.528-.2.193-.424.33-.669.413-.245.082-.557.123-.937.123h-.86l-.239 1.263H10.85l.896-4.75h1.932Z" fill="#fff"/></g></g><defs><radialGradient id="c" cx="0" cy="0" r="1" gradientUnits="userSpaceOnUse" gradientTransform="matrix(11.4859 0 0 11.8307 5.505 5.927)"><stop stop-color="#AEB2D5"/><stop offset=".3" stop-color="#AEB2D5"/><stop offset=".75" stop-color="#484C89"/><stop offset="1" stop-color="#484C89"/></radialGradient><clipPath id="a"><path fill="#fff" transform="translate(0 4)" d="M0 0h18v10H0z"/></clipPath></defs></svg>