<svg width="18" height="20" fill="none" xmlns="http://www.w3.org/2000/svg"><g clip-path="url(#a)"><mask id="b" style="mask-type:luminance" maskUnits="userSpaceOnUse" x="0" y="0" width="18" height="20"><path d="M18 .788H0v18.424h18V.788Z" fill="#fff"/></mask><g mask="url(#b)"><path d="M12.847 13.713c.1-.863.07-.99.698-.85l.16.015c.483.022 1.114-.08 1.492-.256.799-.38 1.272-1.013.485-.846-1.797.38-1.927-.244-1.927-.244 1.897-2.882 2.691-6.54 2.005-7.435-1.867-2.444-5.1-1.288-5.154-1.258l-.017.003a6.052 6.052 0 0 0-1.2-.127c-.813-.012-1.43.218-1.898.582 0 0-5.766-2.432-5.499 3.058.058 1.168 1.635 8.844 3.519 6.521.689-.848 1.354-1.565 1.354-1.565.33.224.725.339 1.14.297l.032-.027c-.01.11-.005.22.013.33-.484.554-.341.651-1.311.856-.981.206-.404.575-.029.671.457.117 1.512.283 2.226-.739l-.03.116c.191.156.178 1.12.206 1.809.028.688.072 1.331.21 1.71.137.378.298 1.355 1.572 1.081 1.065-.233 1.88-.57 1.954-3.696" fill="#000"/><path d="M12.847 13.713c.1-.863.07-.99.698-.85l.16.015c.483.022 1.114-.08 1.492-.256.799-.38 1.272-1.013.485-.846-1.797.38-1.927-.244-1.927-.244 1.897-2.882 2.691-6.54 2.005-7.435-1.867-2.444-5.1-1.288-5.154-1.258l-.017.003a6.052 6.052 0 0 0-1.2-.127c-.813-.012-1.43.218-1.898.582 0 0-5.766-2.432-5.499 3.058.058 1.168 1.635 8.844 3.519 6.521.689-.848 1.354-1.565 1.354-1.565.33.224.725.339 1.14.297l.032-.027c-.01.11-.005.22.013.33-.484.554-.341.651-1.311.856-.981.206-.404.575-.029.671.457.117 1.512.283 2.226-.739l-.03.116c.191.156.178 1.12.206 1.809.028.688.072 1.331.21 1.71.137.378.298 1.355 1.572 1.081 1.065-.233 1.88-.57 1.954-3.696" stroke="#000" stroke-width="5.372"/><path d="M15.675 11.781c-1.796.38-1.926-.244-1.926-.244 1.897-2.882 2.691-6.54 2.006-7.435-1.867-2.443-5.1-1.287-5.154-1.257l-.018.003a6.268 6.268 0 0 0-1.199-.128c-.813-.013-1.43.218-1.898.581 0 0-5.767-2.431-5.498 3.059.057 1.168 1.634 8.843 3.518 6.521a35.746 35.746 0 0 1 1.359-1.57c.329.224.725.338 1.14.297l.032-.028c-.01.11-.005.22.013.33-.485.554-.342.652-1.312.856-.98.207-.404.575-.028.672.456.117 1.512.282 2.225-.74l-.029.117c.19.156.324 1.014.301 1.791-.022.778-.037 1.31.112 1.728.15.418.299 1.355 1.573 1.082 1.065-.234 1.616-.84 1.694-1.85.054-.717.177-.611.186-1.253l.1-.304c.113-.973.018-1.287.674-1.14l.16.014c.483.022 1.115-.08 1.485-.256.799-.379 1.272-1.013.484-.846Z" fill="#336791"/><path d="M9.012 12.333c-.05 1.81.012 3.634.185 4.072.173.438.544 1.304 1.819 1.025 1.065-.233 1.453-.686 1.62-1.684l.394-3.192M7.484 3.256S1.714.84 1.982 6.33c.057 1.168 1.635 8.843 3.518 6.521a31.29 31.29 0 0 1 1.309-1.512m3.792-8.525c-.2.063 3.21-1.276 5.148 1.258.683.895-.11 4.554-2.007 7.436" stroke="#fff" stroke-width="1.79" stroke-linecap="round" stroke-linejoin="round"/><path d="M13.742 11.507s.125.624 1.927.244c.788-.167.314.466-.484.846-.656.311-2.125.391-2.15-.038-.061-1.11.774-.773.714-1.052-.055-.25-.43-.496-.675-1.11-.216-.534-2.96-4.637.76-4.028.137-.029-.97-3.627-4.45-3.68-3.48-.051-3.37 4.381-3.37 4.381" stroke="#fff" stroke-width="1.79" stroke-linecap="round" stroke-linejoin="bevel"/><path d="M8.038 11.888c-.485.555-.342.652-1.311.856-.981.207-.404.575-.029.672.456.117 1.512.282 2.225-.74.218-.312 0-.808-.3-.934-.143-.061-.336-.137-.583.146h-.002Z" stroke="#fff" stroke-width="1.79" stroke-linejoin="round"/><path d="M8.006 11.879c-.05-.327.105-.714.27-1.168.247-.681.817-1.362.361-3.523-.34-1.61-2.623-.336-2.623-.117 0 .218.103 1.107-.037 2.14-.185 1.35.839 2.492 2.017 2.376" stroke="#fff" stroke-width="1.79" stroke-linecap="round" stroke-linejoin="round"/><path d="M7.463 7.038c-.01.075.134.274.321.3.187.027.347-.128.358-.203.01-.075-.134-.156-.321-.183-.187-.027-.348.013-.358.086Z" fill="#fff" stroke="#fff" stroke-width=".598"/><path d="M13.159 6.887c.01.074-.134.273-.32.3-.188.027-.349-.129-.358-.204-.01-.075.133-.156.32-.183.188-.027.349.013.358.087Z" fill="#fff" stroke="#fff" stroke-width=".297"/><path d="M13.828 6.37c.031.585-.123.983-.143 1.606-.028.905.422 1.94-.256 2.978" stroke="#fff" stroke-width="1.79" stroke-linecap="round" stroke-linejoin="round"/></g></g><defs><clipPath id="a"><path fill="#fff" transform="translate(0 .5)" d="M0 0h18v19H0z"/></clipPath></defs></svg>