<svg width="18" height="18" fill="none" xmlns="http://www.w3.org/2000/svg"><g clip-path="url(#a)"><path d="M15.49 10.043a3.6 3.6 0 0 0-1.631.394c-.169-.347-.338-.65-.366-.875-.032-.263-.07-.423-.032-.737.04-.314.215-.758.215-.795-.004-.033-.039-.193-.4-.197-.363-.003-.676.073-.711.172a4.3 4.3 0 0 0-.151.557c-.063.343-.724 1.557-1.1 2.195-.124-.248-.23-.466-.25-.641-.032-.263-.07-.423-.032-.737.039-.313.215-.758.215-.795-.004-.032-.039-.193-.401-.197-.362-.003-.675.073-.71.172-.035.098-.074.332-.151.558-.074.226-.953 2.253-1.182 2.781-.116.27-.218.485-.292.631-.073.146-.003.011-.01.026l-.098.193v.004c-.05.09-.102.178-.127.178-.018 0-.053-.244.007-.58.13-.703.446-1.8.443-1.84 0-.019.06-.212-.204-.31-.257-.099-.348.065-.37.065-.02 0-.038.058-.038.058S8.4 9.088 7.57 9.088c-.52 0-1.237.587-1.592 1.123l-1.21.685c-.193.11-.393.226-.583.332l-.039-.044C3.14 10.072 1.28 9.284 1.357 7.79c.028-.544.211-1.976 3.572-3.712 2.753-1.422 4.957-1.032 5.34-.164.545 1.24-1.177 3.544-4.04 3.876-1.089.127-1.662-.31-1.806-.474-.151-.172-.172-.179-.229-.146-.091.05-.035.204 0 .295.085.23.436.638 1.034.842.524.179 1.803.277 3.35-.342 1.734-.697 3.087-2.63 2.69-4.244-.405-1.644-3.034-2.184-5.52-1.269-1.48.547-3.083 1.4-4.236 2.52C.14 6.297-.078 7.457.014 7.938c.32 1.717 2.602 2.836 3.516 3.664l-.127.073c-.457.233-2.197 1.178-2.633 2.177-.492 1.13.077 1.943.457 2.052 1.174.34 2.377-.27 3.027-1.272.647-1.003.57-2.304.27-2.899l-.01-.021.359-.22c.232-.141.46-.273.66-.386-.112.317-.193.693-.235 1.24-.049.642.204 1.473.538 1.8.148.143.324.147.433.147.386 0 .562-.332.755-.73.24-.484.45-1.046.45-1.046s-.263 1.52.457 1.52c.264 0 .528-.353.647-.535v.003s.007-.01.021-.036a1.01 1.01 0 0 0 .043-.07v-.007c.105-.19.34-.623.692-1.341.454-.926.89-2.086.89-2.086s.042.285.172.751c.077.277.246.58.376.875-.106.153-.169.24-.169.24l.004.004c-.085.117-.18.241-.278.365-.359.445-.787.952-.844 1.098-.066.17-.052.298.078.4.095.074.263.088.443.074.323-.022.548-.106.66-.157.176-.066.377-.164.57-.31.352-.27.566-.653.545-1.163-.01-.28-.098-.558-.207-.82l.095-.146c.555-.843.984-1.769.984-1.769s.042.285.172.751c.067.237.2.496.32.752-.52.44-.847.951-.96 1.287-.207.62-.045.9.26.966.137.029.335-.037.482-.102.183-.062.404-.168.608-.325.352-.27.69-.645.672-1.152a2.276 2.276 0 0 0-.151-.682c.443-.19 1.016-.299 1.743-.208 1.565.19 1.874 1.204 1.814 1.627-.06.422-.386.656-.495.729-.11.069-.144.095-.134.146.014.076.063.072.158.058.13-.022.823-.347.851-1.127.042-1.002-.875-2.096-2.503-2.085ZM3.424 14.26c-.516.587-1.244.81-1.554.62-.334-.2-.203-1.065.433-1.688.387-.38.89-.73 1.22-.945l.32-.2c.02-.015.035-.022.035-.022.024-.014.053-.033.08-.051.236.89.011 1.67-.534 2.286Zm3.78-2.665c-.18.456-.56 1.626-.788 1.56-.197-.054-.316-.94-.039-1.815.141-.442.44-.966.616-1.17.284-.329.594-.438.671-.303.092.175-.348 1.444-.46 1.728Zm3.118 1.546c-.077.04-.148.069-.18.047-.024-.014.032-.07.032-.07s.39-.433.545-.633c.088-.117.194-.252.306-.405v.043c0 .525-.485.875-.703 1.018Zm2.405-.57c-.057-.043-.05-.178.14-.6.074-.168.243-.45.535-.715.035.11.056.215.052.313-.003.657-.453.9-.727 1.003Z" fill="#101010"/></g><defs><clipPath id="a"><path fill="#fff" transform="translate(0 2)" d="M0 0h18v14H0z"/></clipPath></defs></svg>